<?xml version="1.0" encoding="utf-8"?>
<!-- Generator: Adobe Illustrator 16.0.0, SVG Export Plug-In . SVG Version: 6.00 Build 0)  -->
<!DOCTYPE svg PUBLIC "-//W3C//DTD SVG 1.1//EN" "http://www.w3.org/Graphics/SVG/1.1/DTD/svg11.dtd">
<svg version="1.1" id="Layer_1" xmlns="http://www.w3.org/2000/svg" xmlns:xlink="http://www.w3.org/1999/xlink" x="0px" y="0px"
	 width="298.578px" height="107.109px" viewBox="0 0 298.578 107.109" enable-background="new 0 0 298.578 107.109"
	 xml:space="preserve">
<g>
	<g>
		<path fill="#FFFFFF" d="M6.905,93.37c0.504-0.059,1.314-0.102,1.796-0.104c0.462-0.043,1.251-0.182,1.565-0.238
			c0.336-0.062,0.289-0.395-0.102-0.715c-0.244-0.352-0.702-1.201-0.977-1.629c-0.275-0.453-0.936-0.994-1.48-1.242
			c-0.607-0.215-1.242-0.645-1.586-0.871c-0.361-0.211-0.991-0.51-1.398-0.666c-0.404-0.146-1.1-0.406-1.544-0.582
			c-0.441-0.168-1.15-0.502-1.573-0.744c-0.985-0.574-0.102,2.008,0.078,2.635c0.248,1.426,1.016,2.781,2.098,3.441
			c0.412,0.279,1.078,0.574,1.479,0.66C5.667,93.407,6.408,93.432,6.905,93.37z"/>
		<path fill="#FFFFFF" d="M15.547,96.124c-0.162-0.322-0.592-0.695-0.884-0.857c-0.666-0.418-1.36-0.555-2.11-0.797
			c-0.5-0.307-0.737-0.262-1.341-0.215c-0.48,0.033-1.309,0.131-1.832,0.215c-0.514,0.092-1.371,0.281-1.895,0.426
			c-0.553,0.189-1.396,0.15-1.912,0.016c-1.615-0.234,1.31,3.281,2.154,3.551c0.761,0.541,1.997,1.24,2.812,1
			c0.436-0.086,1.094-0.27,1.461-0.408c0.371-0.133,0.975-0.49,1.334-0.797c0.365-0.303,0.967-0.766,1.331-1.029
			C15.001,97.047,15.833,96.651,15.547,96.124z"/>
		<path fill="#FFFFFF" d="M22.313,95.776c-0.683,0.248-1.627,0.02-2.083,0.094c-0.821-0.039-1.341,0.611-2.096,0.922
			c-0.492,0.287-1.29,0.9-1.771,1.35c-0.461,0.451-1.184,1.109-1.578,1.463c-0.498,0.533-1.715,0.668-1.307,1.492
			c0.352,0.664,1.455,0.836,2.196,1.117c1.396,0.404,2.669,0.449,3.978-0.115c1.019-0.324,1.561-0.871,2.074-1.551
			c0.292-0.383,0.672-1.107,0.834-1.604c0.189-0.5,0.406-1.467,0.533-1.982C23.325,95.999,23.294,95.506,22.313,95.776z"/>
		<path fill="#FFFFFF" d="M27.427,92.641c-0.539-0.371-1.098-0.131-1.199,0.449c-0.471,1.652-1.068,1.715-1.716,4.215
			c-0.153,0.482-0.408,1.355-0.57,1.932c-0.146,0.545-0.527,1.578-0.85,2.043c-1.038,1.682,3.562,0.406,4.354-0.285
			c1.594-0.977,2.62-2.65,2.824-4.32c0.046-1.348-0.852-2.16-1.414-2.834C28.491,93.456,27.819,92.911,27.427,92.641z"/>
		<path fill="#FFFFFF" d="M30.585,87.594c-0.713-0.736-1.465-0.715-2.328-0.926c-0.435-0.1-1.145-0.27-1.58-0.373
			c-0.521-0.123-1.238-0.422-1.371,0.424c-0.115,0.824,0.163,2.154,0.559,2.75c0.551,0.832,1.341,1.326,2.053,1.928
			c0.436,0.338,1.113,0.824,1.58,1.139c0.477,0.295,1.197,0.971,1.59,1.514c0.212,0.33,0.244,0.744,0.623,0.285
			c0.209-0.271,0.223-0.775,0.27-1.115c0.326-2.195-0.166-4.133-1.186-5.395L30.585,87.594z"/>
		<path fill="#FFFFFF" d="M41.19,65.387c0.43-0.455,1.204-1.139,1.721-1.52c0.886-0.648-1.102-1.535-1.754-1.846
			c-1.261-0.58-2.977-0.777-4.414-0.629l-1.578,0.398c-0.924,0.451-1.393,1.324-1.848,2.072c-0.294,0.484-0.842,1.229-1.214,1.656
			c-0.11,0.123-0.646,0.561-0.669,0.686c-0.117,0.574,1.729,0.74,2.084,0.787c1.988,0.369,4.327,0.613,6.123-0.387
			C40.062,66.391,40.757,65.842,41.19,65.387z"/>
		<path fill="#FFFFFF" d="M22.053,66.374c0.273,0.34,1.095,0.16,1.476,0.146c0.625-0.051,1.238,0.072,1.875,0.08
			c1.227-0.043,2.34-0.568,3.242-1.371l2.097-2.145c0.569-0.629,1.717-1.381,2.017-2.146c0.164-0.422-0.472-0.504-0.916-0.619
			c-2.023-0.643-4.57-0.537-6.52,0.115c-0.467,0.166-0.881,0.369-1.173,0.615c-0.567,0.543-1.204,1.225-1.338,1.906l-0.476,2.174
			C22.222,65.485,21.783,66.042,22.053,66.374z"/>
		<path fill="#FFFFFF" d="M5.827,78.639c0.209,0.182,0.936,0.98,1.176,0.814c0.903-0.531,0.736-2.121,1.182-2.932
			c0.466-1.418-0.336-3.26-1.152-4.484l-1.053-1.877c-0.202-0.455-0.395-1.125-1.156-0.498c-0.732,0.553-1.028,1.494-1.371,2.301
			c-0.281,0.773-0.939,1.961-0.99,2.734c-0.05,0.965,0.5,1.955,0.979,2.48C4.11,77.879,5.093,78.042,5.827,78.639z"/>
		<path fill="#FFFFFF" d="M4.223,85.862l1.517,0.301c0.367,0.088,0.922,0.34,1.092-0.037c0.201-0.352-0.062-1.191,0.094-1.588
			c0.201-1.33-0.339-2.879-1.365-3.867c-0.447-0.449-1.02-0.83-1.615-1.094c-0.544-0.244-1.003-0.465-1.42-0.928
			c-0.164-0.178-0.49-0.691-0.77-0.602c-0.158,0.053-0.307,0.348-0.424,0.637l-0.176,0.465c-0.759,1.559-0.357,4.654,0.446,5.781
			C2.196,85.745,3.357,85.715,4.223,85.862z"/>
		<path fill="#FFFFFF" d="M9.124,71.975c0.188,0.268,0.411,1.121,0.742,1.162c0.321,0.045,0.762-0.398,0.957-0.584
			c0.691-0.584,1.154-1.41,1.682-2.129c0.629-0.826,0.637-1.516,0.619-2.564c-0.012-0.539-0.092-1.439-0.186-1.996
			c-0.103-0.553-0.092-1.529,0.037-2.176c0.269-1.262-1.458-0.176-2.113,0.266c-1.141,0.855-2.579,1.598-3.111,2.932
			c-0.684,1.396-0.76,2.76,0.145,3.646C8.263,70.903,8.813,71.555,9.124,71.975z"/>
		<path fill="#FFFFFF" d="M16.78,68.196c0.836-0.291,1.699-0.666,2.235-1.496c0.79-1.271,1.39-2.635,1.981-3.975l0.574-1.232
			c0.176-0.303,0.77-0.764,0.182-0.982c-0.467-0.174-1.434,0.031-1.938,0.094c-0.771,0.076-1.678,0.248-2.439,0.75
			c-0.751,0.434-1.406,0.963-1.874,1.607c-0.569,0.785-0.491,1.652-0.445,2.434c0.069,0.9,0.044,1.652-0.118,2.646
			c-0.036,0.18-0.159,0.504-0.082,0.67C15.06,69.151,16.401,68.204,16.78,68.196z"/>
		<path fill="#FFFFFF" d="M51.985,67.413c0.533-0.426,0.447-0.76,0.074-1.107l-0.562-0.426c-0.748-0.516-1.669-0.836-2.553-1.09
			c-1.225-0.328-2.812-0.623-3.959-0.277c-0.629,0.191-1.134,0.314-1.523,0.762l-1.306,1.457l-1.201,0.957
			c-0.253,0.174-0.397,0.227-0.255,0.531c0.207,0.441,1.047,0.756,1.497,0.938c1.192,0.443,2.657,0.816,3.936,0.895
			c1.722,0.104,3.118-0.293,4.26-1.303C50.747,68.43,51.462,67.829,51.985,67.413z"/>
		<path fill="#FFFFFF" d="M61.646,71.645c0.721-0.678-2.514-2.035-2.961-2.23c-0.98-0.422-1.93-0.793-2.865-0.92
			c-0.796-0.104-1.586-0.027-2.369,0.34c-0.934,0.438-1.43,1.1-2.169,1.715c-0.341,0.283-0.9,0.662-1.242,0.84
			c-0.88,0.459,1.233,1.256,1.619,1.41c2.323,0.91,4.747,1.289,6.724,0.17c0.639-0.357,1.304-0.561,2.005-0.822
			C60.739,72.018,61.389,71.887,61.646,71.645z"/>
		<path fill="#FFFFFF" d="M67.687,74.387l0.439-0.156c0.611-0.496-0.733-1-1.152-1.172l-1.697-0.547
			c-0.76-0.174-1.523-0.195-2.183,0.1c-0.669,0.303-1.701,0.965-2.29,1.475c-0.591,0.508-1.438,1.051-1.884,1.207
			c-0.444,0.156-0.473,0.441-0.061,0.635c0.995,0.465,2.028,0.914,3.108,1.08c1.027,0.158,1.886-0.076,2.744-0.479
			c0.398-0.186,1.035-0.629,1.416-0.986C66.604,75.098,67.038,74.657,67.687,74.387z"/>
		<path fill="#FFFFFF" d="M72.801,77.989c0.313-0.324,0.843-0.84,1.177-1.145c0.376-0.346,0.038-0.674-0.352-0.904
			c-0.598-0.352-1.539-0.678-2.373-0.779l-0.903-0.004c-2.048,0.24-2.397,2.42-3.953,3.232l-0.436,0.254
			c-0.335,0.463,0.429,0.729,0.819,0.914c0.532,0.252,1.174,0.264,1.734,0.355c1.278,0.168,2.227-0.24,3.092-0.875
			C71.95,78.786,72.487,78.315,72.801,77.989z"/>
		<path fill="#FFFFFF" d="M80.805,78.221l-0.054-0.133c-0.193-0.279-0.801-0.291-1.117-0.373c-1.316-0.266-2.781-0.617-4.012-0.006
			c-1.363,0.686-1.937,1.777-2.98,2.715c-0.229,0.203-0.904,0.586-0.721,0.949c0.115,0.23,0.638,0.404,0.884,0.482
			c1.715,0.516,3.96,0.881,5.089-0.332l2.213-2.297C80.327,79.002,80.865,78.555,80.805,78.221z"/>
		<path fill="#FFFFFF" d="M86.407,79.725c0.216-0.607,0.074-1.07-0.309-1.027c-0.727,0.098-1.428-0.037-2.111,0.15
			c-0.772,0.242-1.5,0.498-2.025,1.09c-0.457,0.516-0.692,1.162-1.066,1.723l-1.067,1.277c-0.301,0.334-0.702,0.646,0.023,0.896
			c0.695,0.238,1.397,0.195,2.106,0.225c1.617,0.121,3.305-1.246,3.747-2.451C85.873,81.18,86.19,80.334,86.407,79.725z"/>
		<path fill="#FFFFFF" d="M25.356,83.272c-0.068,2.064,3.529,2.031,4.889,2.396c0.519,0.139,0.624-0.482,0.599-0.992
			C30.705,81.899,25.491,79.25,25.356,83.272z"/>
		<path fill="#FFFFFF" d="M108.022,60.079c0.48,0.031,0.617-0.053,1.33-0.213c0.258,0.037,0.796,0.045,1.18,0.039
			c0.383-0.037,1.143-0.047,1.622-0.002c0.501,0.004,1.365,0.186,1.916,0.42c0.577,0.223,1.278,0.619,1.579,0.836
			c0.295,0.213,0.504-0.244,0.191-1.1c-0.383-0.871-0.797-2.217-1.622-3.1c-0.521-0.908-2.093-1.809-3.202-1.871
			c-0.984-0.277-2.209,0.318-2.707,0.588c-0.535,0.301-1.109,0.787-1.243,1.303c-0.188,0.449-0.392,1.184-0.453,1.625
			c-0.077,0.445-0.14,1.117-0.146,1.484C106.495,60.948,107.729,60.26,108.022,60.079z"/>
		<path fill="#FFFFFF" d="M114.144,62.114c-0.48-0.275-1.269-0.557-1.76-0.631c-0.53-0.076-1.361-0.248-1.828-0.363
			c-1.047-0.299-0.288,2.334-0.195,2.957c0.205,0.613,0.467,1.623,0.854,2.092l0.946,0.988c0.285,0.273,0.779,0.746,1.161,1.018
			c0.383,0.279,0.963,0.848,1.285,1.27c0.31,0.377,0.562,1.518,1.171,1.006c0.369-0.314,0.63-1.178,0.768-1.719
			c0.289-1.021,0.175-2.342,0.099-3.471c-0.122-0.936-0.382-1.199-0.854-1.785C115.43,62.993,114.601,62.377,114.144,62.114z"/>
		<path fill="#FFFFFF" d="M110.105,79.784c0.927-0.611,2.06-1.705,2.608-2.303c1.062-0.982,1.205-2.158,1.298-3.307
			c0.099-0.775-0.298-2.033-0.597-2.609c-0.324-0.617-0.826-1.381-1.164-1.748c-0.439-0.502-0.936-1.502-1.593-1.123
			c-0.476,0.301-0.784,0.975-1.116,1.422c-0.476,0.84-0.672,1.699-0.927,2.715c-0.297,0.723-0.259,1.361-0.167,2.209
			c0.066,0.484,0.18,1.328,0.246,1.879c0.09,0.561,0.14,1.527,0.105,2.15C108.741,80.188,108.719,80.815,110.105,79.784z"/>
		<path fill="#FFFFFF" d="M103.907,75.874c-0.861,0.717-1.686,1.432-2.372,2.408c-0.614,0.723-0.741,1.787-1.149,2.721
			c-0.201,0.496-0.588,1.217-0.822,1.686c-0.328,0.629,0.077,1.102,1.005,1.02c2.839-0.377,5.993-1.717,6.525-4.391
			c0.153-0.551,0.224-1.508,0.157-2.119c-0.041-0.6-0.1-1.545-0.132-2.094C106.971,73.508,104.441,75.643,103.907,75.874z"/>
		<path fill="#FFFFFF" d="M99.706,78.182c-0.188-0.07-0.69-0.021-0.886-0.002c-1.541,0.121-3.157,0.498-4.362,1.504l-0.229,0.176
			c-0.729,0.605-0.821,1.352-1.117,2.176c-0.149,0.418-0.403,1.1-0.565,1.516c-0.189,0.502-0.601,1.172,0.262,1.414
			c0.8,0.191,2.336,0.199,3.046-0.295c0.938-0.547,1.605-1.475,2.162-2.213c0.329-0.436,0.736-1.223,0.906-1.748
			c0.188-0.533,0.502-1.338,0.82-1.842C99.891,78.543,100.066,78.323,99.706,78.182z"/>
		<path fill="#FFFFFF" d="M119.491,96.217c0.881-0.596-0.867-1.582-1.424-1.92c-1.122-0.621-2.479-1.123-3.744-1.273l-1.508,0.055
			c-0.939,0.178-1.666,0.828-2.368,1.371c-0.45,0.35-1.265,0.852-1.779,1.027c-0.149,0.059-0.847,0.17-0.929,0.266
			c-0.396,0.525,1.442,1.605,1.821,1.711c2.005,1.045,4.472,2.02,6.421,1.209c0.46-0.17,1.225-0.648,1.699-1.062
			C118.157,97.186,118.971,96.565,119.491,96.217z"/>
		<path fill="#FFFFFF" d="M111.153,91.575c0.301-0.32-0.113-0.635-0.374-0.902c-1.158-1.316-2.627-2.229-3.989-3.273
			c-0.324-0.25-0.643-0.506-0.949-0.775c-0.371-0.328-0.641-0.707-1.103-0.916c-0.88-0.396-1.796-0.109-2.694-0.006
			c-0.787,0.09-2.02-0.207-2.646,0.398c-1.571,1.525,1.573,4.531,2.539,5.602c0.974,1.232,2.339,1.723,3.648,1.582
			c1.058-0.057,2.069-0.338,2.987-0.658C109.38,92.352,110.612,92.163,111.153,91.575z"/>
		<path fill="#FFFFFF" d="M98.309,70.444l1.921,0.932c0.428,0.223,0.977,0.518,1.227-0.158c0.229-0.621,0.262-1.271,0.198-1.926
			c-0.128-0.643,0.148-1.547,0.066-2.121c-0.157-0.736-0.591-1.543-1.068-2.109c-0.616-0.74-1.557-1.043-2.187-1.822
			c-0.192-0.215-0.532-1.303-0.866-1.154c-1.21,0.59-1.503,2.887-1.779,4.072C95.54,68.282,97.112,69.868,98.309,70.444z"/>
		<path fill="#FFFFFF" d="M100.657,62.76l1.075,1.281c0.109,0.199,0.322,0.67,0.608,0.691c0.16,0.014,0.351-0.141,0.506-0.297
			l0.24-0.254c0.684-1.014,2-2.289,2.285-3.568c0.147-0.949-0.264-1.895-0.464-2.797c-0.105-0.5-0.089-0.982-0.026-1.506
			c0.037-0.377,0.42-1.037-0.203-1.07c-0.691-0.086-1.893,0.604-2.333,0.963c-1.794,1.113-3.275,3.162-2.728,4.789
			C99.802,61.708,100.19,62.301,100.657,62.76z"/>
		<path fill="#FFFFFF" d="M98.864,77.383c0.738-0.066,1.556-0.26,2.164-0.709c0.98-0.721,0.551-1.471,0.185-2.449
			c-0.493-1.059-1.392-1.965-2.663-2.1c-0.523-0.051-1.375-0.219-1.893-0.379c-0.348-0.092-1.035-0.779-1.319-0.586
			c-0.325,0.199-0.272,1.016-0.294,1.367c-0.021,1.178,0.054,2.395,0.426,3.461C96.103,77.325,97.497,77.508,98.864,77.383z"/>
		<path fill="#FFFFFF" d="M127.449,97.012l-0.564-0.158c-0.732-0.141-1.479-0.346-2.232-0.32c-1.058,0.086-2.286-0.102-3.312,0.357
			c-0.544,0.25-1.032,0.357-1.439,0.766l-1.379,1.359l-1.294,0.846c-0.276,0.148-0.433,0.186-0.308,0.504
			c0.182,0.463,1.047,0.869,1.51,1.098c1.266,0.566,3.119,0.924,4.504,0.812c1.932-0.309,3.221-0.887,3.914-2.35
			c0.219-0.438,0.637-1.279,0.91-1.871C128.04,97.45,127.845,97.178,127.449,97.012z"/>
		<path fill="#FFFFFF" d="M133.471,96.268l-2.351,0.955c-0.609,0.326-1.143,0.814-1.604,1.539c-0.567,0.773-0.723,1.58-1.148,2.443
			c-0.197,0.4-0.585,0.973-0.861,1.275c-0.725,0.783,1.834,0.641,2.305,0.613c2.847-0.33,5.336-1.801,5.887-4.043l0.627-2.037
			c0.092-0.359,0.314-0.936,0.242-1.271C136.384,94.891,133.938,96.264,133.471,96.268z"/>
		<path fill="#FFFFFF" d="M141.534,93.614c-0.35-0.566-0.713-1.07-0.915-1.689l-0.112-0.404c-0.447-0.59-1.006,0.383-1.178,0.691
			c-0.174,0.426-0.551,0.746-0.809,1.145c-0.336,0.518-0.549,1.133-0.518,1.852c0.023,0.705,0.012,1.828,0.096,2.617
			c0.09,0.766-0.018,1.807-0.208,2.293c-0.187,0.484,0.018,0.68,0.482,0.418c1.077-0.686,2.339-1.191,2.995-2.367
			c0.686-1.021,0.849-1.979,0.797-2.889C142.134,94.84,141.806,94.053,141.534,93.614z"/>
		<path fill="#FFFFFF" d="M144.724,87.948c-0.371-0.258-1.021-0.58-1.444-0.717c-0.423-0.146-1.101-0.357-1.503-0.465
			c-0.451-0.119-0.633,0.254-0.698,0.592c-0.166,0.508,0.147,1.277,0.033,1.818l0.138,0.648c0.684,1.646,2.545,2.242,3.15,3.953
			l0.16,0.508c0.389,0.43,0.858-0.428,1.145-0.869c0.451-0.535,0.367-1.5,0.451-2.211C146.351,89.534,145.736,88.577,144.724,87.948
			z"/>
		<path fill="#FFFFFF" d="M146.739,85.299c-0.613-2.066-1.803-4.361-3.592-4.285l-3.174,0.033c-0.315,0.01-1.008-0.021-1.195,0.258
			l-0.053,0.129c-0.041,0.322,0.338,0.732,0.479,0.986c0.701,1.027,1.377,2.15,2.441,2.725c1.256,0.662,2.689,0.523,3.909,1.119
			c0.28,0.123,0.918,0.688,1.165,0.299C146.872,86.313,146.819,85.598,146.739,85.299z"/>
		<path fill="#FFFFFF" d="M139.132,79.286c0.676-0.076,1.285-0.391,1.939-0.545l1.66-0.186c0.453-0.031,0.971,0.033,0.594-0.676
			c-0.361-0.682-0.924-1.156-1.438-1.686c-1.248-1.146-3.428-1.195-4.482-0.6c-0.393,0.211-1.178,0.656-1.736,0.988
			c-0.56,0.336-0.732,0.77-0.429,0.99c0.563,0.432,0.985,0.994,1.663,1.242C137.691,79.081,138.356,79.374,139.132,79.286z"/>
		<path fill="#FFFFFF" d="M91.478,79.303c-1.065,0.141-2.033,0.178-2.91,0.752c-0.447,0.314-0.535,0.646-0.774,1.088L86.606,83.1
			c-0.182,0.281-1.16,0.986-0.877,1.354l0.401,0.24c1.126,0.338,2.618,0.104,3.613-0.285c1.066-0.502,1.461-1.463,1.792-2.363
			l0.223-0.596c0.165-0.416,0.436-1.1,0.6-1.518C92.521,79.514,92.123,79.231,91.478,79.303z"/>
		<path fill="#FFFFFF" d="M135.501,74.624l2.168-0.758c0.322-0.102,1.534-0.02,1.549-0.482l-0.161-0.439
			c-0.671-0.975-1.959-1.768-3.042-2.047c-1.115-0.326-2.014,0.154-2.825,0.633l-1.671,2.174c0.851,0.633,1.617,1.205,2.691,1.271
			C134.755,75.012,135.036,74.811,135.501,74.624z"/>
	</g>
	<g>
		<path fill="#FFFFFF" d="M283.328,103.182c-0.317-0.27-0.811-0.75-1.093-1.066l-0.986-1.107l-0.984-1.006
			c-0.287-0.26-0.812-0.703-1.158-0.986c-0.352-0.268-0.905-0.467-1.255-0.514c-0.354-0.014-0.935-0.018-1.293-0.012
			c-0.341-0.041-0.545,0.119-0.457,0.416c0.09,0.287,0.292,0.922,0.479,1.32c0.176,0.42,0.457,1.145,0.617,1.605
			c0.154,0.463,0.461,1.086,0.676,1.387c0.21,0.297,0.655,0.727,0.987,0.922c0.806,0.412,1.917,0.305,2.898,0.129
			C282.196,104.147,284.077,103.807,283.328,103.182z"/>
		<path fill="#FFFFFF" d="M276.075,102.211c-0.121-0.49-0.341-1.256-0.483-1.699c-0.151-0.445-0.407-1.125-0.565-1.506
			c-0.192-0.48-0.266-0.682-0.582-0.92c-0.414-0.277-0.746-0.574-1.226-0.686c-0.177-0.096-0.47-0.221-0.76-0.066
			c-0.491,0.25-0.416,0.904-0.471,1.326c-0.073,0.439-0.19,1.188-0.265,1.656c-0.071,0.445-0.066,1.07-0.004,1.404
			c0.059,0.328,0.212,0.881,0.342,1.225c0.224,0.598,1.155,1.156,1.768,1.389c0.524,0.371,3.75,0.525,2.975-0.559
			C276.513,103.377,276.187,102.704,276.075,102.211z"/>
		<path fill="#FFFFFF" d="M270.726,94.151c-0.242-0.6-0.684-0.432-1.402,0.098c-0.399,0.287-1.07,0.812-1.487,1.16
			c-0.444,0.344-0.94,0.91-1.14,1.271c-0.381,0.645-0.621,1.266-0.459,2.078c0.255,0.957,0.828,2.201,1.711,2.744
			c0.548,0.25,1.254,0.686,1.84,0.52c0.701-0.213,0.385-1.252,0.504-1.818c0.076-0.461,0.232-1.297,0.367-1.836
			c0.068-0.521,0.339-1.49,0.51-1.859c0.203-0.6,0.366-0.904,0.146-1.326C271.166,94.993,270.825,94.6,270.726,94.151z"/>
		<path fill="#FFFFFF" d="M266.948,94.758c0.418-0.344,1.045-0.855,1.39-1.137c1.724-1.32,1.581-2.434,1.685-3.824
			c0.062-0.4-0.387-0.748-1-0.703c-0.447,0.029-1.207,0.148-1.684,0.262c-0.821,0.227-1.821,0.369-2.441,1.059
			c-0.805,0.816-1.148,1.912-1.182,3.096c-0.161,0.625,0.877,4.105,1.84,2.67C265.896,95.727,266.526,95.086,266.948,94.758z"/>
		<path fill="#FFFFFF" d="M271.001,86.163c-0.291-0.289-0.818-0.73-1.171-0.975c-0.7-0.484-1.272-0.992-2.271-0.904l-0.258,0.074
			c-1.42,0.451-2.471,2.059-2.697,3.508c-0.06,0.232-0.165,0.584-0.086,0.803c0.193,0.369,0.354,0.172,0.686,0.047
			c0.523-0.215,1.386-0.398,1.913-0.418c0.532-0.035,1.308-0.113,1.718-0.176c0.672-0.158,1.684,0.02,2.153-0.086
			c0.353-0.166,0.74-0.301,0.767-0.654C271.79,86.975,271.37,86.497,271.001,86.163z"/>
		<path fill="#FFFFFF" d="M289.433,77.18c0.155,0.182,0.68,1.242,1.146,0.973c0.109-0.061,0.432-0.578,0.525-0.701
			c0.34-0.414,0.859-1.049,1.231-1.441c0.571-0.604,1.232-1.264,1.396-2.105c0.083-0.432,0.081-0.893,0.007-1.361
			c-0.193-1.166-1.004-2.219-1.832-2.91c-0.402-0.4-1.871-1.273-2.085-0.309c-0.139,0.572-0.462,1.471-0.714,2
			c-0.231,0.521-0.548,1.32-0.637,1.717C288.103,74.741,288.792,76.045,289.433,77.18z"/>
		<path fill="#FFFFFF" d="M291.987,79.598c-0.547,0.82-0.934,1.658-0.769,2.408l0.392,1.117c0.057,0.236,0.033,0.762,0.42,0.881
			c0.376,0.119,0.839-0.24,1.166-0.377l2.038-0.707c0.642-0.219,1.184-0.812,1.597-1.35l0.382-1.01
			c0.362-1.662-0.3-3.533-1.28-4.852c-0.199-0.297-0.406-0.746-0.758-0.465c-0.641,0.52-1.112,1.631-1.603,2.248
			C293.015,78.213,292.426,78.926,291.987,79.598z"/>
		<path fill="#FFFFFF" d="M292.998,95.87l-1.989-0.736c-1.268-0.521-2.882-0.887-3.928-0.404c-0.584,0.285-1.627,0.877-1.523,1.613
			c0.016,0.199,0.843,0.789,1.064,0.891c0.744,0.486,1.318,1.305,2.095,1.717c0.6,0.314,1.418,0.469,2.149,0.326
			c0.59-0.115,1.259-0.762,1.759-1.061c0.495-0.373,0.932-0.877,1.201-1.457C294.116,96.125,293.465,96.008,292.998,95.87z"/>
		<path fill="#FFFFFF" d="M288.101,100.084c-0.52-0.285-0.881-0.646-1.293-1.082c-0.449-0.475-0.973-0.916-1.485-1.246
			c-1.063-0.639-2.224-0.613-3.009-0.113c-0.223,0.143-0.78,0.4-0.91,0.709c-0.146,0.322,0.23,0.697,0.436,0.982l0.81,1.209
			c0.456,0.725,0.896,1.684,1.69,2.041c1.129,0.498,3.121-0.291,3.983-1.219l0.269-0.236c0.162-0.156,0.316-0.338,0.287-0.484
			C288.821,100.387,288.301,100.196,288.101,100.084z"/>
		<path fill="#FFFFFF" d="M296.459,90.014c-0.536,0.158-1.404,0.246-1.932,0.211c-0.531-0.031-1.348-0.023-1.834-0.002
			c-0.994,0.029-1.646,0.057-2.271,0.518c-0.557,0.383-0.763,0.943-1.15,1.451c-0.098,0.158-0.343,0.514-0.196,0.76
			c0.146,0.256,0.974,0.402,1.271,0.535c0.473,0.225,1.231,0.627,1.681,0.898c1.045,0.639,2.331,0.605,3.154-0.141
			c0.774-0.635,1.363-1.621,1.774-2.566C297.123,91.129,297.505,89.69,296.459,90.014z"/>
		<path fill="#FFFFFF" d="M297.84,83.249c-0.332-0.404-0.666,0.127-0.93,0.305l-1.097,0.613c-1.101,0.643-2.643,1.141-3.619,1.818
			c-0.681,0.436-0.642,1.072-0.885,1.631c-0.073,0.225-0.577,1.215-0.007,1.365c0.174,0.047,0.411-0.066,0.557-0.104
			c0.763-0.205,1.629-0.234,2.506-0.248c0.786-0.018,1.662-0.021,2.351-0.486c0.505-0.393,0.829-0.924,1.053-1.516
			c0.219-0.598,0.334-1.25,0.354-1.891C298.088,84.346,298.103,83.573,297.84,83.249z"/>
		<path fill="#FFFFFF" d="M285.797,72.776c0.255,0.18,0.714,0.525,1.126,0.412c0.283-0.08,0.289-0.197,0.365-0.457l0.442-1.312
			l0.773-1.697c0.233-0.52,0.168-0.943,0.103-1.496c-0.085-1.047-0.986-1.947-1.725-2.621c-0.541-0.492-1.187-0.895-1.918-1.035
			l-0.562-0.088c-0.418-0.016-0.68,0.162-0.723,0.811c-0.041,0.635-0.145,1.514-0.219,1.959c-0.215,1.412,0.018,2.523,0.587,3.582
			C284.503,71.571,285.152,72.266,285.797,72.776z"/>
		<path fill="#FFFFFF" d="M276.551,63.977c0.298,0.586,0.573,1.104,0.742,1.73c0.549,1.871,1.657,3.064,3.106,3.633
			c0.229,0.127,1.455,0.836,1.448-0.023c-0.006-0.334,0.028-0.949,0.073-1.369c0.1-0.904,0.312-1.695,0.164-2.623
			c-0.125-0.785-0.508-1.271-0.994-1.686c-0.586-0.471-1.335-0.797-2.143-1.039c-0.371-0.084-3.117-0.676-2.945,0.289
			C276.06,63.231,276.403,63.682,276.551,63.977z"/>
		<path fill="#FFFFFF" d="M270.911,62.846c0.393,0.457,0.577,1.008,0.781,1.582c0.165,0.441,0.459,1.137,0.65,1.461
			c0.418,0.711,0.834,1.297,1.434,1.592c0.634,0.27,1.303,0.354,1.965,0.49c0.273,0.041,0.385-0.215,0.23-0.572
			c-0.15-0.357-0.367-1.252-0.497-1.992c-0.118-0.76-0.484-1.814-0.817-2.365c-0.318-0.553-0.863-0.867-1.467-1.041l-1.431-0.203
			c-0.348,0.033-1.452,0.107-1.126,0.766L270.911,62.846z"/>
		<path fill="#FFFFFF" d="M266.656,64.856c0.2,0.393,0.538,0.984,0.747,1.316c0.535,0.838,1.1,1.488,1.908,1.674
			c0.363,0.084,0.76,0.277,1.122,0.203c0.27-0.057,0.776-0.072,0.668-0.615l-0.216-0.377c-0.823-1.254-0.612-3.441-2.062-4.281
			l-0.676-0.232c-0.648-0.117-1.424-0.043-1.926,0.143c-0.328,0.123-0.614,0.35-0.351,0.773
			C266.104,63.836,266.457,64.463,266.656,64.856z"/>
		<path fill="#FFFFFF" d="M266.448,68.538c0.16-0.02,0.5-0.033,0.587-0.223c0.138-0.297-0.28-0.844-0.429-1.098
			c-0.664-1.17-1.02-2.35-2.007-3.162c-0.901-0.729-2.059-0.504-3.083-0.355c-0.248,0.035-0.73,0.047-0.852,0.328l-0.029,0.133
			c-0.01,0.328,0.452,0.77,0.639,0.994l1.799,2.424C263.958,68.897,265.338,68.756,266.448,68.538z"/>
		<path fill="#FFFFFF" d="M261.004,67.528c-0.345-0.553-0.61-1.186-1.033-1.689c-0.482-0.572-1.065-0.758-1.706-0.941
			c-0.57-0.158-1.073,0.084-1.643,0.143c-0.303,0.031-0.283,0.502,0.038,1.051c0.321,0.547,0.766,1.311,0.989,1.699
			c0.617,1.049,2.034,2.193,3.053,2.074c0.449-0.078,0.91,0.029,1.316-0.186c0.427-0.213,0.134-0.535-0.111-0.873L261.004,67.528z"
			/>
		<path fill="#FFFFFF" d="M272.038,81.477c-0.792-0.203-1.709-0.053-2.385,0.422c-0.076,0.051-0.174,0.117-0.276,0.191
			c-0.384,0.273-0.831,0.664-0.355,0.969c0.488,0.314,1.003,0.455,1.476,0.811c0.48,0.359,1.031,0.75,1.637,0.846
			c1.099,0.17,1.199-0.609,1.223-1.482C273.385,82.268,272.986,81.719,272.038,81.477z"/>
		<path fill="#FFFFFF" d="M257.456,69.36l-1.383-1.678c-0.305-0.379-0.471-0.678-0.899-0.896c-0.844-0.428-1.579-0.191-2.339,0.086
			c-0.474,0.158-0.624,0.553-0.337,0.875l1.017,1.182l0.379,0.475c0.568,0.729,1.173,1.449,1.979,1.66
			c0.761,0.188,1.75,0.234,2.341-0.246l0.18-0.283C258.472,70.141,257.663,69.6,257.456,69.36z"/>
		<path fill="#FFFFFF" d="M232.014,80.887c-0.374-0.322-0.931-0.902-1.241-1.285c-0.311-0.387-0.783-0.887-1.054-1.115
			c-0.271-0.229-0.75-0.512-1.064-0.635c-0.781-0.301-1.634-0.07-2.413,0.178c-0.346,0.121-1.973,0.273-1.342,0.963
			c0.27,0.295,0.709,0.807,0.975,1.137c0.268,0.33,0.709,0.844,0.979,1.143c0.27,0.285,0.756,0.689,1.084,0.896
			c0.327,0.211,0.978,0.543,1.447,0.74c0.469,0.199,1.238,0.242,1.705,0.098c0.465-0.145,1.229-0.387,1.698-0.539
			s0.64-0.438,0.379-0.635S232.386,81.209,232.014,80.887z"/>
		<path fill="#FFFFFF" d="M237.524,78.846c-0.354-0.289-0.895-0.805-1.205-1.146c-0.312-0.34-0.789-0.775-1.062-0.971l-1.027-0.672
			c-0.514-0.309-1.331-0.119-1.884-0.088c-0.455,0.092-2.837,0.99-1.913,1.697c0.376,0.285,0.939,0.834,1.25,1.221
			c0.305,0.383,0.865,0.963,1.233,1.26c0.364,0.295,1.004,0.703,1.425,0.91c0.514,0.252,0.754,0.41,1.295,0.264
			c0.68-0.186,1.345-0.273,1.996-0.621c0.279-0.148,0.717-0.408,0.816-0.764C238.611,79.346,237.853,79.12,237.524,78.846z"/>
		<path fill="#FFFFFF" d="M244.173,76.282c-0.429-0.303-1.107-0.834-1.51-1.182c-0.402-0.346-1.021-0.809-1.375-1.027
			c-0.635-0.389-1.164-0.67-1.814-0.615c-0.836,0.072-1.678-0.01-2.359,0.533c-0.373,0.307-0.948,0.561-1.074,1.119
			c-0.154,0.678,0.752,1.049,1.187,1.447c0.34,0.314,1.019,0.891,1.487,1.248c0.472,0.363,1.3,0.803,1.842,0.979
			c0.801,0.258,1.458,0.355,2.168-0.068c0.398-0.238,1.183-0.705,1.742-1.037C245.335,77.159,244.946,76.829,244.173,76.282z"/>
		<path fill="#FFFFFF" d="M249.651,73.038c-0.373-0.273-0.99-0.721-1.374-0.994c-0.716-0.512-1.413-1.256-2.221-1.438
			c-0.964-0.215-1.935-0.213-2.822,0.111c-0.464,0.18-2.951,1.391-1.646,2.23c0.439,0.283,1.144,0.793,1.564,1.129
			c0.423,0.338,1.117,0.814,1.542,1.061c1.926,1.111,3.5,0.225,5.021-0.814C250.212,73.985,250.163,73.417,249.651,73.038z"/>
		<path fill="#FFFFFF" d="M252.915,69.895c-0.545-0.65-0.931-1.291-1.695-1.584l-0.234-0.076c-1.23-0.357-2.469,0.141-3.471,0.756
			c-0.158,0.1-0.411,0.238-0.487,0.438c-0.129,0.334,0.108,0.395,0.375,0.557c0.433,0.266,1.103,0.773,1.489,1.131
			c0.391,0.361,1.036,0.84,1.438,1.064c0.684,0.383,1.486,0.895,2.213,0.984c0.559,0.066,1.446-0.275,1.802-0.717
			c0.382-0.475-0.12-0.965-0.444-1.361L252.915,69.895z"/>
		<path fill="#FFFFFF" d="M195.429,79.442l-0.498-0.998c-0.576-0.662-1.148-1.359-1.902-1.547c-0.37-0.109-1.546-0.518-1.769,0.373
			c-0.122,0.527-0.347,1.424-0.498,1.992c-0.159,0.562-0.247,1.369-0.201,1.789c0.146,1.844,1.777,3.07,3.356,3.588
			c0.273,0.104,1.685,0.773,1.822,0.141c0.025-0.117-0.18-0.695-0.195-0.865c-0.082-0.539-0.109-1.422-0.07-1.965
			C195.532,81.106,195.657,80.172,195.429,79.442z"/>
		<path fill="#FFFFFF" d="M202.54,82.942c-0.068-0.672-0.436-1.32-0.731-1.83l-0.624-0.701c-1.061-0.781-2.299-1.242-3.552-1.225
			c-0.278,0.012-0.608-0.113-0.687,0.316c-0.171,0.832,0.219,1.809,0.365,2.574c0.166,0.867,0.391,1.775,0.767,2.564
			c0.45,0.936,1.246,1.738,2.241,1.877c0.512,0.094,1.028-0.004,1.54-0.002c0.312,0.002,0.985,0.158,1.197-0.191
			c0.204-0.34-0.149-0.883-0.229-1.232L202.54,82.942z"/>
		<path fill="#FFFFFF" d="M219.204,81.446c-0.358-0.574-0.939-1.166-1.541-1.465c-0.486-0.242-1.258-0.104-1.742-0.154
			c-0.521-0.061-1.053-0.006-1.532,0.176c-0.523,0.211-0.222,0.77-0.01,1.205l0.866,1.941c0.534,1.264,1.659,2.654,3.004,2.725
			c0.781,0.047,2.155,0.15,2.639-0.658c0.137-0.223-0.526-1.012-0.654-1.24C219.784,83.188,219.673,82.198,219.204,81.446z"/>
		<path fill="#FFFFFF" d="M225.386,81.68c-0.398-0.766-0.737-1.713-1.416-2.205c-0.97-0.684-2.662-0.402-3.6-0.006l-0.277,0.111
			c-0.17,0.076-0.346,0.18-0.371,0.328c-0.042,0.26,0.303,0.646,0.43,0.828c0.33,0.465,0.521,0.938,0.732,1.494
			c0.231,0.611,0.56,1.211,0.971,1.691c0.872,1.027,2.352,1.127,3.459,0.725c0.316-0.111,1.037-0.422,1.231-0.725
			c0.21-0.326-0.207-0.703-0.405-0.998L225.386,81.68z"/>
		<path fill="#FFFFFF" d="M214.021,82.93c-0.24-1.248-1.01-2.018-1.886-2.369c-0.792-0.293-1.651-0.32-2.442-0.281
			c-0.428,0.021-1.561,0.109-1.061,1.002c0.26,0.459,0.605,1.25,0.766,1.762c0.159,0.508,0.486,1.285,0.733,1.725
			c0.477,0.852,0.858,1.406,1.747,1.691c0.754,0.211,1.545,0.158,2.305,0.002c0.227-0.047,0.758-0.131,0.855-0.412
			c0.098-0.283-0.436-0.973-0.536-1.279C214.335,84.272,214.119,83.446,214.021,82.93z"/>
		<path fill="#FFFFFF" d="M208.008,83.709c-0.213-0.746-0.419-1.559-0.899-2.127c-0.395-0.463-0.827-0.756-1.287-0.936
			c-0.461-0.184-0.939-0.25-1.421-0.252c-0.303,0.018-0.854-0.129-1.126,0.061c-0.349,0.25-0.016,0.678,0.094,0.973l0.37,1.205
			c0.444,1.213,0.884,2.678,1.788,3.613c0.59,0.609,1.445,0.695,2.218,0.703c0.294-0.012,1.746,0.125,1.669-0.459
			c-0.024-0.18-0.253-0.365-0.354-0.49C208.53,85.35,208.247,84.54,208.008,83.709z"/>
		<path fill="#FFFFFF" d="M187.534,80.997c0.299,0.295,0.961,0.629,1.39,0.471c0.294-0.105,0.261-0.238,0.276-0.514l0.206-1.367
			l0.702-1.762c0.238-0.521,0.229-0.914,0.26-1.396c0.08-0.895-0.338-1.645-0.652-2.182c-0.131-0.439-0.339-0.814-0.715-1.094
			l-0.327-0.199c-0.28-0.117-0.596-0.104-1.04,0.305c-0.437,0.4-1.035,1.02-1.34,1.35c-0.961,1.02-1.318,2.375-0.838,3.746
			C185.868,79.301,186.681,80.331,187.534,80.997z"/>
		<path fill="#FFFFFF" d="M187.352,71.19c0.187-0.584,0.127-1.16,0.057-1.787c0.001-0.291-0.077-2.424-0.936-2.213
			c-0.339,0.08-0.718,0.432-0.96,0.615l-1.506,1.08c-1.753,1.082-2.322,2.941-1.637,5.205c0.027,0.404,1.016,2.09,1.395,1.281
			c0.162-0.314,0.525-0.811,0.811-1.1c0.631-0.629,1.239-1.039,1.882-1.693C186.98,72.04,187.233,71.629,187.352,71.19z"/>
		<path fill="#FFFFFF" d="M182.047,67.905c0.298-0.27,1.133-0.682,1.858-0.902c0.713-0.227,1.754-0.646,2.312-0.926
			c0.562-0.275,0.816-0.711,1.06-1.135l0.307-1.033c0.008-0.299,0.267-1.057-0.447-1.021l-0.365,0.119
			c-0.563,0.174-1.121,0.227-1.739,0.285c-0.489,0.049-1.177,0.225-1.527,0.389c-0.731,0.342-1.45,0.812-1.73,1.562
			c-0.308,0.789-0.392,1.67-0.339,2.516C181.462,68.112,181.737,68.17,182.047,67.905z"/>
		<path fill="#FFFFFF" d="M182.309,61.92l0.461-0.143c1.55-0.494,3.528,0.443,4.758-0.23L188,61.295
			c0.378-0.197,0.542-0.707,0.622-0.9c0.045-0.117,0.021-0.361-0.35-0.639c-0.33-0.242-0.948-0.592-1.357-0.775
			c-0.427-0.215-1.033-0.355-1.419-0.4c-0.938-0.119-1.963,0.115-2.679,1.027c-0.258,0.391-0.64,0.801-0.758,1.289
			C181.975,61.254,181.735,61.901,182.309,61.92z"/>
		<path fill="#FFFFFF" d="M185.584,57.038c1.336,0.467,2.181,1.355,3.136,1.943c0.943,0.674,1.688,0.242,2.213,0.414
			c0.135,0.01,0.361,0.07,0.469-0.201l0.037-0.123c0.074-0.322-0.113-0.842-0.22-1.084c-0.325-0.852-0.819-1.762-1.429-2.615
			c-1.042-1.244-2.877-1.105-4.574,0.268c-0.235,0.18-0.721,0.607-0.737,0.873C184.458,56.917,185.296,56.928,185.584,57.038z"/>
		<path fill="#FFFFFF" d="M192.206,55.827l0.115,1.943c0.074,0.654,0.225,1.148,0.299,1.668c0.064,0.391,0.331,0.469,0.476,0.855
			c0.071,0.166,0.455-0.096,0.827-0.598c0.371-0.506,0.848-1.252,1.072-1.641c0.733-1.049,0.626-3.1-0.908-4.029
			c-0.664-0.279-1.37-0.594-2.155-0.602c-0.803,0.027-0.449,0.457-0.267,0.844C191.905,54.774,192.121,55.313,192.206,55.827z"/>
		<path fill="#FFFFFF" d="M195.141,62.495c0.152,0.375,0.543,0.461,0.858,0.186l1.131-1.041l0.443-0.414
			c0.667-0.627,1.357-1.34,1.362-2.291c-0.114-0.867-0.429-2.148-1.425-2.695l-0.425-0.115c-0.435,0.066-0.397,1.166-0.535,1.443
			c-0.249,0.646-0.653,1.316-1.055,1.918c-0.275,0.4-0.513,0.648-0.638,1.072C194.622,61.344,194.894,61.846,195.141,62.495z"/>
		<path fill="#FFFFFF" d="M199.644,87.6c-0.1-0.045-0.202-0.086-0.306-0.119c-0.597-0.191-1.239-0.197-1.851-0.326
			c-0.617-0.131-1.188-0.365-1.793-0.537c-0.831-0.238-1.523,0.229-2.027,0.838c-0.254,0.305-1.187,1.26-0.359,1.447
			c0.377,0.084,1.022,0.234,1.432,0.334c0.406,0.1,1.068,0.23,1.467,0.291c0.399,0.064,1.059,0.08,1.467,0.037
			c0.404-0.039,1.166-0.191,1.694-0.344C200.352,88.938,200.603,88.043,199.644,87.6z"/>
		<path fill="#FFFFFF" d="M201.082,73.401c-0.466,0.254-1.117,0.66-1.446,0.9c-0.606,0.434-1.076,0.795-1.283,1.377
			c-0.195,0.529-0.834,1.43-0.578,1.988c0.242,0.533,1.234,0.754,1.739,0.855c0.913,0.188,1.513,0.15,2.366-0.242
			c0.574-0.26,1.351-0.854,1.743-1.303c0.605-0.686,0.958-1.312,0.843-2.207c-0.046-0.51-0.219-1.477-0.339-2.164
			c-0.189-1.072-0.633-0.791-1.411-0.229C202.284,72.688,201.548,73.149,201.082,73.401z"/>
		<path fill="#FFFFFF" d="M199.761,67.083c-0.655,0.602-1.508,1.098-1.911,1.807c-0.473,0.85-0.712,1.701-0.708,2.578
			c0.049,0.443,0.301,3.021,1.547,2.162c0.42-0.295,1.143-0.77,1.605-1.051c0.473-0.279,1.135-0.781,1.503-1.117
			c1.657-1.518,1.255-3.502,0.484-5.35c-0.239-0.607-0.808-0.668-1.274-0.213L199.761,67.083z"/>
		<path fill="#FFFFFF" d="M196.478,63.842l-0.094,0.213c-0.449,1.107-0.143,2.193,0.245,3.195l0.313,0.518
			c0.297,0.174,0.408-0.029,0.625-0.248c0.354-0.352,0.99-0.904,1.414-1.223c0.435-0.316,0.997-0.879,1.261-1.258
			c0.458-0.637,1.04-1.428,1.177-2.234c0.064-0.619-0.325-1.695-0.785-2.127c-0.537-0.461-0.98,0.127-1.348,0.475
			c-0.316,0.293-0.85,0.764-1.178,1.045C197.456,62.75,196.813,63.141,196.478,63.842z"/>
		<path fill="#FFFFFF" d="M168.05,101.329c-0.157-0.826-0.281-1.754-0.721-2.389l-0.799-0.818c-0.75-0.592-1.619-0.984-2.451-0.939
			c-0.434,0.037-1.725-0.033-1.605,0.9c0.057,0.588,0.181,1.482,0.224,2.078c0.044,0.584,0.225,1.371,0.399,1.748
			c0.723,1.598,2.55,2.371,4.145,2.434c0.281,0.027,1.755,0.24,1.747-0.348c-0.003-0.127-0.333-0.664-0.39-0.807
			C168.396,102.694,168.15,101.858,168.05,101.329z"/>
		<path fill="#FFFFFF" d="M175.163,100.665c-0.218-0.635-0.711-1.168-1.098-1.584l-0.73-0.514c-1.191-0.676-2.59-0.648-3.83-0.436
			c-0.268,0.031-0.641-0.006-0.611,0.438c0.053,0.801,0.659,1.781,0.982,2.477c0.366,0.803,0.789,1.629,1.326,2.305
			c0.643,0.799,1.554,1.369,2.57,1.365c0.533-0.041,1.027-0.273,1.537-0.404c0.311-0.082,1.02-0.107,1.146-0.504
			c0.119-0.385-0.359-0.816-0.519-1.135L175.163,100.665z"/>
		<path fill="#FFFFFF" d="M192.075,95.569c-0.766-0.469-1.332-1.295-2.081-1.732c-0.589-0.355-1.374-0.643-2.03-0.674
			c-0.532-0.027-1.135,0.393-1.57,0.533c-0.472,0.148-0.903,0.383-1.223,0.771c-0.352,0.418,0.113,0.801,0.473,1.125l1.521,1.416
			c0.968,0.936,2.586,1.734,3.903,1.182c0.761-0.309,2.153-0.838,2.179-1.871C193.262,96.047,192.294,95.706,192.075,95.569z"/>
		<path fill="#FFFFFF" d="M196.644,91.313l-1.344-0.531c-0.768-0.379-1.595-0.943-2.385-0.959c-1.139-0.033-2.413,0.914-2.943,1.723
			l-0.167,0.225c-0.099,0.146-0.188,0.318-0.135,0.459c0.095,0.25,0.564,0.424,0.763,0.52l1.357,0.939
			c0.5,0.416,1.083,0.768,1.688,0.965c1.262,0.404,2.736-0.301,3.488-1.352c0.203-0.311,0.625-1.066,0.605-1.445
			C197.55,91.446,196.979,91.424,196.644,91.313z"/>
		<path fill="#FFFFFF" d="M187.121,98.827c-0.349-0.4-0.862-1.088-1.147-1.529c-0.698-1.066-1.695-1.531-2.607-1.59
			c-0.824-0.053-1.575,0.248-2.251,0.59c-0.376,0.146-1.401,0.463-0.665,1.203c0.382,0.375,0.958,1.043,1.271,1.484
			c0.311,0.441,0.881,1.107,1.244,1.412c0.721,0.625,1.254,0.994,2.199,0.918c0.812-0.066,1.576-0.396,2.269-0.814
			c0.206-0.125,0.702-0.389,0.688-0.689C188.108,99.512,187.336,99.081,187.121,98.827z"/>
		<path fill="#FFFFFF" d="M182.305,101.875c-0.728-0.48-1.245-1.18-1.72-1.912c-0.426-0.656-0.861-1.402-1.461-1.783
			c-0.494-0.314-0.971-0.459-1.434-0.484l-1.372,0.068c-0.277,0.039-0.821,0.033-1.03,0.295c-0.268,0.334,0.143,0.662,0.314,0.92
			l0.635,1.07c0.708,1.074,1.547,2.537,2.675,3.133c0.736,0.393,1.593,0.182,2.353-0.055c0.291-0.09,1.801-0.348,1.542-0.881
			C182.729,102.083,182.442,101.967,182.305,101.875z"/>
		<path fill="#FFFFFF" d="M161.546,100.885l0.027-1.891c0.028-0.57-0.139-0.924-0.309-1.385c-0.285-0.865-1.086-1.389-1.584-1.842
			c-0.357-0.338-0.762-0.596-1.261-0.693l-0.411-0.045c-0.322,0.012-0.599,0.166-0.796,0.74c-0.193,0.564-0.439,1.389-0.563,1.818
			c-0.402,1.371-0.104,2.611,0.836,3.723c0.727,0.693,1.812,1.293,2.814,1.561c0.379,0.111,1.074,0.312,1.416-0.014
			c0.234-0.201,0.164-0.312,0.087-0.578L161.546,100.885z"/>
		<path fill="#FFFFFF" d="M155.362,92.561c-0.053-0.232-0.703-1.789-1.523-1.391c-0.282,0.152-0.512,0.553-0.689,0.795l-1.051,1.504
			c-1.436,1.77-0.621,3.826,0.904,5.432c0.178,0.398,1.744,1.414,1.74,0.521c0.006-0.348,0.107-0.953,0.227-1.34l0.918-2.451
			c0.208-0.73,0.238-1.264,0.132-1.695C155.948,93.395,155.438,93.114,155.362,92.561z"/>
		<path fill="#FFFFFF" d="M154.244,89.042l0.069-0.977c-0.068-0.221,0-1.068-0.674-0.922l-0.345,0.195
			c-0.466,0.254-1.026,0.373-1.608,0.533c-0.463,0.123-1.098,0.412-1.406,0.641c-0.664,0.482-1.193,1.086-1.396,1.957
			c-0.286,0.922-0.105,1.869,0.38,2.746c0.164,0.369,0.444,0.336,0.636-0.041c0.188-0.385,0.818-1.051,1.404-1.447
			c0.525-0.398,1.501-1.061,2.04-1.445C153.858,89.897,154.125,89.469,154.244,89.042z"/>
		<path fill="#FFFFFF" d="M149.153,86.729c1.465-0.721,3.562-0.113,4.693-0.984l0.417-0.41c0.337-0.408,0.522-0.947,0.522-1.381
			c0.008-0.277-0.027-0.58-0.516-0.633c-0.431-0.045-1.139-0.107-1.551-0.133c-0.42-0.033-1.082-0.021-1.47,0.027
			c-0.958,0.123-1.88,0.453-2.366,1.389c-0.199,0.422-0.518,0.883-0.561,1.375c-0.029,0.354-0.184,1.055,0.402,0.938
			C148.878,86.944,149.019,86.792,149.153,86.729z"/>
		<path fill="#FFFFFF" d="M157.126,80.202l-0.053-0.117c-0.172-0.275-0.753-0.459-1.024-0.557l-2.851-0.916
			c-1.557-0.449-2.786,0.961-3.424,2.271c-0.104,0.186-0.317,0.582-0.211,0.789c0.175,0.324,0.863,0.166,1.174,0.18
			c1.345,0.023,2.568,0.445,3.782,0.301c1.038-0.156,1.702-0.762,2.212-1.377C156.861,80.629,157.206,80.479,157.126,80.202z"/>
		<path fill="#FFFFFF" d="M153.612,76.735l1.447,0.605l1.641,1.027c0.625,0.291,1.225,0.371,1.796,0.439
			c0.512,0.088,0.778-0.27,1.205-0.293c0.218-0.012,0.112-0.457-0.25-0.979c-0.362-0.52-0.907-1.229-1.196-1.578
			c-0.771-1.021-2.53-1.631-3.8-1.014c-0.513,0.281-0.999,0.57-1.354,1.061C152.743,76.522,153.212,76.59,153.612,76.735z"/>
		<path fill="#FFFFFF" d="M160.405,72.561c-0.929-0.332-2.252-0.209-3.023,0.457l-0.232,0.332c-0.074,0.412,0.946,0.803,1.17,1.029
			l1.471,1.584c0.289,0.373,0.445,0.668,0.794,0.898c0.7,0.576,1.183,0.492,1.764,0.422l-0.238-2.734
			C161.788,73.719,161.368,72.834,160.405,72.561z"/>
	</g>
</g>
<rect x="-3.644" y="2.431" fill="none" width="306.162" height="68.72"/>
<text transform="matrix(1 0 0 1 19.0435 44.71)" fill="#FFFFFF" font-family="'Fontin-Regular'" font-size="56">The Annex</text>
</svg>
