<?xml version="1.0" encoding="utf-8"?>
<!-- Generator: Adobe Illustrator 16.0.0, SVG Export Plug-In . SVG Version: 6.00 Build 0)  -->
<!DOCTYPE svg PUBLIC "-//W3C//DTD SVG 1.1//EN" "http://www.w3.org/Graphics/SVG/1.1/DTD/svg11.dtd">
<svg version="1.1" id="Layer_1" xmlns="http://www.w3.org/2000/svg" xmlns:xlink="http://www.w3.org/1999/xlink" x="0px" y="0px"
	 width="298.578px" height="107.109px" viewBox="0 0 298.578 107.109" enable-background="new 0 0 298.578 107.109"
	 xml:space="preserve">
<g>
	<g>
		<path fill="#FFFFFF" d="M6.799,95.051c0.503-0.058,1.313-0.102,1.795-0.104c0.461-0.042,1.25-0.181,1.565-0.238
			c0.335-0.062,0.289-0.394-0.102-0.715c-0.244-0.352-0.702-1.2-0.977-1.628c-0.275-0.454-0.936-0.995-1.48-1.243
			c-0.606-0.215-1.241-0.644-1.585-0.87c-0.361-0.211-0.991-0.511-1.399-0.666c-0.404-0.146-1.1-0.406-1.543-0.583
			c-0.441-0.168-1.15-0.501-1.574-0.743c-0.985-0.573-0.101,2.009,0.079,2.635c0.248,1.427,1.016,2.781,2.098,3.44
			c0.412,0.28,1.079,0.575,1.479,0.66C5.561,95.088,6.302,95.114,6.799,95.051z"/>
		<path fill="#FFFFFF" d="M15.44,97.806c-0.162-0.323-0.592-0.696-0.884-0.857c-0.666-0.419-1.36-0.556-2.11-0.798
			c-0.5-0.308-0.737-0.262-1.341-0.214c-0.481,0.032-1.309,0.131-1.832,0.214c-0.514,0.092-1.371,0.282-1.894,0.427
			c-0.554,0.189-1.396,0.149-1.913,0.015c-1.614-0.232,1.31,3.282,2.154,3.552c0.761,0.541,1.998,1.24,2.812,1
			c0.436-0.086,1.094-0.27,1.461-0.407c0.372-0.134,0.975-0.491,1.333-0.798c0.366-0.304,0.968-0.767,1.332-1.029
			C14.895,98.729,15.727,98.333,15.44,97.806z"/>
		<path fill="#FFFFFF" d="M22.208,97.458c-0.683,0.249-1.627,0.021-2.083,0.094c-0.821-0.037-1.341,0.611-2.096,0.923
			c-0.492,0.288-1.291,0.899-1.77,1.35c-0.461,0.452-1.185,1.109-1.579,1.463c-0.498,0.534-1.714,0.669-1.307,1.492
			c0.352,0.664,1.455,0.837,2.197,1.118c1.396,0.402,2.669,0.449,3.978-0.116c1.018-0.324,1.56-0.87,2.073-1.55
			c0.292-0.383,0.673-1.108,0.834-1.604c0.19-0.5,0.406-1.467,0.533-1.981C23.219,97.681,23.188,97.189,22.208,97.458z"/>
		<path fill="#FFFFFF" d="M27.321,94.324c-0.54-0.371-1.098-0.131-1.2,0.448c-0.47,1.651-1.068,1.716-1.715,4.215
			c-0.153,0.482-0.408,1.354-0.57,1.933c-0.146,0.545-0.527,1.578-0.85,2.042c-1.038,1.684,3.562,0.406,4.354-0.283
			c1.594-0.979,2.62-2.65,2.824-4.321c0.046-1.349-0.852-2.159-1.414-2.834C28.385,95.137,27.713,94.592,27.321,94.324z"/>
		<path fill="#FFFFFF" d="M30.479,89.276c-0.713-0.735-1.464-0.714-2.328-0.925c-0.435-0.102-1.145-0.271-1.58-0.373
			c-0.522-0.124-1.238-0.423-1.372,0.424c-0.115,0.823,0.164,2.153,0.56,2.75c0.55,0.831,1.34,1.325,2.053,1.927
			c0.435,0.338,1.112,0.824,1.58,1.14c0.476,0.295,1.196,0.971,1.589,1.514c0.212,0.331,0.244,0.744,0.624,0.285
			c0.209-0.271,0.222-0.775,0.27-1.114c0.325-2.195-0.167-4.134-1.186-5.396L30.479,89.276z"/>
		<path fill="#FFFFFF" d="M41.084,67.07c0.43-0.454,1.204-1.14,1.721-1.521c0.885-0.646-1.102-1.535-1.754-1.847
			c-1.261-0.58-2.976-0.777-4.415-0.629l-1.578,0.398c-0.924,0.45-1.393,1.323-1.848,2.073c-0.293,0.482-0.841,1.229-1.213,1.654
			c-0.11,0.125-0.646,0.562-0.669,0.687c-0.117,0.575,1.729,0.739,2.084,0.787c1.988,0.368,4.327,0.612,6.124-0.388
			C39.955,68.073,40.65,67.524,41.084,67.07z"/>
		<path fill="#FFFFFF" d="M21.946,68.055c0.273,0.342,1.094,0.161,1.476,0.146c0.625-0.052,1.238,0.071,1.875,0.08
			c1.226-0.044,2.34-0.569,3.242-1.372l2.097-2.143c0.569-0.632,1.717-1.382,2.017-2.148c0.163-0.42-0.472-0.503-0.917-0.617
			c-2.023-0.645-4.57-0.538-6.52,0.114c-0.467,0.165-0.881,0.368-1.173,0.615c-0.568,0.542-1.204,1.226-1.338,1.907l-0.476,2.173
			C22.116,67.167,21.677,67.725,21.946,68.055z"/>
		<path fill="#FFFFFF" d="M5.72,80.323c0.21,0.18,0.936,0.979,1.176,0.812c0.903-0.53,0.736-2.119,1.182-2.931
			c0.465-1.419-0.337-3.261-1.153-4.484l-1.052-1.878c-0.203-0.455-0.396-1.124-1.157-0.498c-0.732,0.556-1.028,1.495-1.371,2.303
			c-0.282,0.772-0.94,1.962-0.99,2.732c-0.05,0.968,0.5,1.955,0.978,2.481C4.003,79.561,4.987,79.724,5.72,80.323z"/>
		<path fill="#FFFFFF" d="M4.116,87.544l1.516,0.301c0.368,0.088,0.922,0.34,1.093-0.036c0.201-0.354-0.062-1.191,0.093-1.589
			c0.201-1.33-0.339-2.879-1.365-3.867c-0.448-0.449-1.021-0.83-1.615-1.095c-0.544-0.242-1.003-0.465-1.421-0.928
			c-0.163-0.176-0.489-0.688-0.77-0.601c-0.158,0.052-0.306,0.348-0.423,0.637l-0.176,0.466c-0.759,1.558-0.358,4.653,0.446,5.78
			C2.089,87.426,3.251,87.398,4.116,87.544z"/>
		<path fill="#FFFFFF" d="M9.018,73.659c0.188,0.267,0.411,1.119,0.742,1.161c0.322,0.044,0.762-0.397,0.958-0.585
			c0.691-0.582,1.154-1.41,1.682-2.128c0.628-0.825,0.636-1.518,0.619-2.565c-0.011-0.538-0.092-1.438-0.186-1.995
			c-0.102-0.554-0.092-1.529,0.037-2.176c0.269-1.263-1.458-0.176-2.113,0.265c-1.14,0.857-2.579,1.6-3.112,2.934
			c-0.684,1.396-0.759,2.759,0.145,3.646C8.157,72.584,8.707,73.239,9.018,73.659z"/>
		<path fill="#FFFFFF" d="M16.674,69.879c0.835-0.293,1.699-0.666,2.235-1.498c0.791-1.27,1.39-2.633,1.981-3.973l0.575-1.233
			c0.175-0.303,0.769-0.765,0.182-0.982c-0.467-0.174-1.434,0.033-1.938,0.094c-0.772,0.076-1.679,0.248-2.439,0.751
			c-0.751,0.433-1.406,0.964-1.875,1.607c-0.569,0.783-0.492,1.65-0.445,2.434c0.069,0.899,0.043,1.651-0.119,2.646
			c-0.036,0.181-0.159,0.505-0.082,0.671C14.953,70.834,16.295,69.887,16.674,69.879z"/>
		<path fill="#FFFFFF" d="M51.878,69.094c0.534-0.424,0.448-0.76,0.075-1.106l-0.562-0.426c-0.748-0.517-1.669-0.834-2.552-1.089
			c-1.225-0.329-2.812-0.624-3.959-0.276c-0.628,0.188-1.134,0.312-1.523,0.762l-1.306,1.455L40.85,69.37
			c-0.253,0.176-0.397,0.228-0.254,0.531c0.207,0.442,1.046,0.756,1.497,0.938c1.192,0.444,2.657,0.816,3.936,0.896
			c1.722,0.104,3.118-0.292,4.26-1.303C50.641,70.112,51.356,69.51,51.878,69.094z"/>
		<path fill="#FFFFFF" d="M61.539,73.327c0.721-0.677-2.514-2.034-2.96-2.229c-0.98-0.423-1.93-0.793-2.866-0.921
			c-0.795-0.102-1.586-0.024-2.368,0.341c-0.934,0.438-1.43,1.1-2.169,1.715c-0.341,0.285-0.9,0.663-1.242,0.84
			c-0.88,0.459,1.233,1.257,1.619,1.412c2.323,0.909,4.748,1.287,6.724,0.169c0.638-0.358,1.303-0.562,2.004-0.823
			C60.632,73.7,61.282,73.57,61.539,73.327z"/>
		<path fill="#FFFFFF" d="M67.58,76.07l0.44-0.155c0.61-0.498-0.734-1.002-1.153-1.173l-1.696-0.547
			c-0.76-0.174-1.524-0.196-2.183,0.1c-0.669,0.304-1.701,0.965-2.291,1.475c-0.59,0.509-1.438,1.052-1.883,1.209
			c-0.445,0.153-0.473,0.438-0.061,0.633c0.995,0.465,2.028,0.916,3.108,1.08c1.028,0.158,1.886-0.076,2.744-0.479
			c0.399-0.185,1.035-0.629,1.416-0.984C66.498,76.78,66.932,76.34,67.58,76.07z"/>
		<path fill="#FFFFFF" d="M72.694,79.671c0.313-0.324,0.843-0.841,1.176-1.146c0.376-0.346,0.039-0.673-0.352-0.902
			c-0.597-0.354-1.539-0.679-2.373-0.779l-0.903-0.004c-2.047,0.238-2.398,2.419-3.953,3.23l-0.436,0.256
			c-0.335,0.461,0.429,0.727,0.819,0.914c0.532,0.252,1.174,0.262,1.735,0.354c1.278,0.17,2.226-0.239,3.092-0.875
			C71.844,80.468,72.381,79.997,72.694,79.671z"/>
		<path fill="#FFFFFF" d="M80.698,79.904l-0.054-0.133c-0.192-0.28-0.8-0.29-1.117-0.373c-1.316-0.267-2.78-0.618-4.011-0.006
			c-1.363,0.685-1.937,1.776-2.98,2.714c-0.23,0.203-0.904,0.587-0.722,0.949c0.116,0.23,0.638,0.404,0.884,0.482
			c1.715,0.515,3.96,0.88,5.089-0.332L80,80.91C80.22,80.686,80.759,80.237,80.698,79.904z"/>
		<path fill="#FFFFFF" d="M86.301,81.408c0.215-0.608,0.074-1.071-0.309-1.028c-0.727,0.099-1.428-0.035-2.112,0.15
			c-0.772,0.244-1.499,0.499-2.024,1.092c-0.457,0.517-0.693,1.161-1.067,1.721l-1.067,1.277c-0.301,0.335-0.702,0.647,0.023,0.896
			c0.695,0.238,1.398,0.194,2.106,0.226c1.618,0.12,3.304-1.246,3.747-2.452C85.767,82.862,86.084,82.016,86.301,81.408z"/>
		<path fill="#FFFFFF" d="M25.25,84.955c-0.068,2.064,3.529,2.03,4.89,2.396c0.518,0.139,0.624-0.482,0.598-0.992
			C30.599,83.581,25.384,80.934,25.25,84.955z"/>
		<path fill="#FFFFFF" d="M107.916,61.76c0.481,0.032,0.617-0.053,1.33-0.213c0.258,0.037,0.796,0.045,1.18,0.039
			c0.382-0.037,1.143-0.047,1.622-0.002c0.501,0.004,1.365,0.188,1.916,0.421c0.578,0.223,1.279,0.618,1.579,0.835
			c0.296,0.213,0.505-0.243,0.192-1.1c-0.383-0.871-0.797-2.217-1.623-3.098c-0.521-0.91-2.093-1.812-3.202-1.873
			c-0.985-0.277-2.21,0.319-2.707,0.588c-0.536,0.301-1.11,0.787-1.244,1.304c-0.188,0.448-0.392,1.186-0.453,1.624
			c-0.078,0.446-0.14,1.119-0.146,1.485C106.388,62.631,107.623,61.942,107.916,61.76z"/>
		<path fill="#FFFFFF" d="M114.037,63.797c-0.48-0.276-1.269-0.559-1.759-0.633c-0.531-0.076-1.362-0.248-1.828-0.363
			c-1.048-0.299-0.289,2.337-0.196,2.957c0.205,0.614,0.467,1.623,0.854,2.093l0.946,0.987c0.285,0.275,0.78,0.746,1.161,1.019
			c0.383,0.279,0.963,0.849,1.285,1.271c0.309,0.375,0.562,1.519,1.171,1.004c0.369-0.313,0.629-1.178,0.767-1.719
			c0.29-1.02,0.175-2.341,0.099-3.471c-0.123-0.935-0.382-1.199-0.855-1.785C115.323,64.675,114.495,64.059,114.037,63.797z"/>
		<path fill="#FFFFFF" d="M109.999,81.466c0.927-0.61,2.06-1.706,2.609-2.304c1.061-0.979,1.205-2.158,1.297-3.307
			c0.099-0.773-0.298-2.032-0.597-2.609c-0.324-0.615-0.826-1.381-1.164-1.747c-0.44-0.502-0.936-1.501-1.593-1.124
			c-0.475,0.302-0.785,0.978-1.117,1.422c-0.475,0.84-0.672,1.7-0.926,2.715c-0.297,0.725-0.258,1.362-0.167,2.211
			c0.066,0.482,0.179,1.328,0.246,1.879c0.091,0.56,0.14,1.526,0.105,2.148C108.635,81.871,108.612,82.498,109.999,81.466z"/>
		<path fill="#FFFFFF" d="M103.801,77.555c-0.862,0.719-1.686,1.433-2.373,2.409c-0.614,0.724-0.741,1.785-1.15,2.721
			c-0.201,0.495-0.587,1.216-0.822,1.685c-0.328,0.629,0.078,1.103,1.005,1.021c2.839-0.376,5.993-1.718,6.525-4.392
			c0.153-0.551,0.224-1.508,0.158-2.118c-0.042-0.6-0.101-1.544-0.132-2.095C106.864,75.191,104.335,77.325,103.801,77.555z"/>
		<path fill="#FFFFFF" d="M99.599,79.864c-0.188-0.068-0.69-0.021-0.885-0.002c-1.541,0.121-3.157,0.498-4.363,1.506l-0.228,0.176
			c-0.729,0.604-0.821,1.352-1.117,2.175c-0.149,0.417-0.403,1.101-0.565,1.517c-0.189,0.501-0.601,1.171,0.262,1.414
			c0.799,0.189,2.336,0.199,3.046-0.295c0.937-0.548,1.605-1.477,2.162-2.214c0.329-0.437,0.737-1.223,0.906-1.747
			c0.187-0.533,0.502-1.337,0.82-1.844C99.784,80.226,99.96,80.006,99.599,79.864z"/>
		<path fill="#FFFFFF" d="M119.384,97.899c0.881-0.595-0.867-1.582-1.424-1.92c-1.122-0.621-2.478-1.123-3.743-1.272l-1.508,0.054
			c-0.94,0.18-1.667,0.828-2.369,1.372c-0.45,0.35-1.265,0.853-1.779,1.026c-0.15,0.06-0.847,0.17-0.928,0.266
			c-0.397,0.526,1.442,1.605,1.821,1.713c2.005,1.044,4.472,2.019,6.42,1.208c0.46-0.171,1.226-0.647,1.7-1.062
			C118.05,98.869,118.864,98.247,119.384,97.899z"/>
		<path fill="#FFFFFF" d="M111.047,93.257c0.3-0.32-0.113-0.636-0.375-0.901c-1.158-1.316-2.627-2.229-3.989-3.274
			c-0.324-0.249-0.643-0.506-0.95-0.774c-0.371-0.328-0.641-0.707-1.103-0.915c-0.879-0.396-1.795-0.11-2.694-0.008
			c-0.788,0.092-2.02-0.207-2.646,0.399c-1.571,1.524,1.574,4.53,2.539,5.601c0.974,1.233,2.338,1.725,3.648,1.583
			c1.057-0.057,2.069-0.338,2.988-0.658C109.274,94.035,110.506,93.844,111.047,93.257z"/>
		<path fill="#FFFFFF" d="M98.202,72.127l1.92,0.932c0.429,0.223,0.978,0.518,1.227-0.157c0.229-0.621,0.262-1.272,0.198-1.928
			c-0.128-0.644,0.148-1.546,0.066-2.12c-0.157-0.736-0.591-1.543-1.068-2.108c-0.616-0.741-1.557-1.044-2.187-1.824
			c-0.192-0.215-0.532-1.303-0.866-1.152c-1.209,0.59-1.503,2.886-1.779,4.07C95.434,69.964,97.005,71.549,98.202,72.127z"/>
		<path fill="#FFFFFF" d="M100.551,64.442l1.075,1.282c0.109,0.197,0.322,0.671,0.609,0.691c0.16,0.012,0.35-0.141,0.505-0.298
			l0.24-0.255c0.685-1.013,2-2.289,2.285-3.568c0.148-0.947-0.263-1.895-0.463-2.796c-0.105-0.501-0.088-0.98-0.026-1.507
			c0.037-0.377,0.42-1.037-0.203-1.069c-0.692-0.085-1.894,0.604-2.333,0.963c-1.794,1.114-3.275,3.161-2.727,4.788
			C99.695,63.389,100.084,63.983,100.551,64.442z"/>
		<path fill="#FFFFFF" d="M98.758,79.066c0.738-0.067,1.556-0.259,2.165-0.708c0.98-0.724,0.551-1.474,0.184-2.45
			c-0.494-1.059-1.392-1.965-2.663-2.101c-0.523-0.052-1.375-0.218-1.893-0.38c-0.349-0.092-1.036-0.776-1.32-0.586
			c-0.325,0.199-0.273,1.017-0.294,1.369c-0.021,1.177,0.054,2.394,0.426,3.461C95.996,79.006,97.391,79.19,98.758,79.066z"/>
		<path fill="#FFFFFF" d="M127.343,98.694l-0.564-0.158c-0.732-0.14-1.48-0.346-2.232-0.32c-1.057,0.086-2.287-0.101-3.312,0.358
			c-0.544,0.25-1.032,0.357-1.439,0.766l-1.378,1.358l-1.294,0.846c-0.276,0.149-0.433,0.188-0.308,0.504
			c0.181,0.465,1.047,0.869,1.51,1.1c1.266,0.564,3.118,0.924,4.503,0.812c1.932-0.309,3.222-0.888,3.914-2.351
			c0.219-0.438,0.637-1.278,0.911-1.871C127.933,99.132,127.738,98.86,127.343,98.694z"/>
		<path fill="#FFFFFF" d="M133.364,97.951l-2.351,0.955c-0.609,0.326-1.142,0.813-1.604,1.539c-0.567,0.771-0.722,1.58-1.148,2.443
			c-0.197,0.398-0.585,0.973-0.861,1.274c-0.726,0.782,1.833,0.641,2.305,0.613c2.846-0.33,5.335-1.801,5.886-4.043l0.627-2.037
			c0.092-0.36,0.314-0.938,0.242-1.272C136.277,96.573,133.833,97.947,133.364,97.951z"/>
		<path fill="#FFFFFF" d="M141.428,95.295c-0.35-0.564-0.712-1.069-0.915-1.688l-0.113-0.405c-0.446-0.59-1.005,0.384-1.178,0.691
			c-0.173,0.427-0.55,0.747-0.808,1.146c-0.337,0.519-0.549,1.132-0.518,1.853c0.023,0.703,0.011,1.826,0.096,2.615
			c0.089,0.768-0.018,1.809-0.208,2.294c-0.187,0.483,0.018,0.68,0.482,0.418c1.077-0.687,2.338-1.191,2.995-2.366
			c0.686-1.021,0.849-1.979,0.797-2.891C142.027,96.523,141.699,95.735,141.428,95.295z"/>
		<path fill="#FFFFFF" d="M144.617,89.629c-0.371-0.257-1.021-0.58-1.444-0.716c-0.422-0.146-1.101-0.357-1.502-0.465
			c-0.452-0.119-0.633,0.254-0.699,0.591c-0.166,0.508,0.147,1.278,0.033,1.818l0.138,0.647c0.684,1.646,2.544,2.243,3.149,3.954
			l0.16,0.508c0.389,0.43,0.859-0.429,1.145-0.869c0.452-0.534,0.367-1.5,0.451-2.212C146.244,91.216,145.63,90.258,144.617,89.629z
			"/>
		<path fill="#FFFFFF" d="M146.633,86.982c-0.614-2.067-1.804-4.362-3.592-4.286l-3.174,0.033c-0.315,0.01-1.007-0.021-1.195,0.259
			l-0.053,0.129c-0.041,0.322,0.339,0.732,0.479,0.986c0.701,1.025,1.377,2.149,2.442,2.724c1.255,0.663,2.688,0.524,3.909,1.119
			c0.281,0.124,0.918,0.688,1.166,0.299C146.766,87.996,146.713,87.281,146.633,86.982z"/>
		<path fill="#FFFFFF" d="M139.025,80.969c0.675-0.075,1.285-0.392,1.939-0.546l1.66-0.187c0.454-0.031,0.971,0.034,0.594-0.676
			c-0.361-0.682-0.924-1.156-1.437-1.685c-1.248-1.147-3.428-1.195-4.483-0.602c-0.392,0.212-1.177,0.657-1.735,0.989
			c-0.56,0.335-0.732,0.769-0.429,0.988c0.564,0.434,0.985,0.994,1.663,1.242C137.585,80.762,138.25,81.057,139.025,80.969z"/>
		<path fill="#FFFFFF" d="M91.371,80.986c-1.065,0.14-2.032,0.178-2.909,0.752c-0.447,0.312-0.536,0.646-0.775,1.087L86.5,84.782
			c-0.182,0.281-1.16,0.986-0.877,1.354l0.401,0.24c1.126,0.339,2.618,0.104,3.613-0.284c1.066-0.502,1.461-1.463,1.792-2.362
			l0.223-0.597c0.165-0.416,0.435-1.099,0.599-1.519C92.415,81.197,92.017,80.914,91.371,80.986z"/>
		<path fill="#FFFFFF" d="M135.395,76.305l2.167-0.758c0.323-0.101,1.534-0.021,1.549-0.482l-0.161-0.439
			c-0.67-0.973-1.959-1.768-3.042-2.045c-1.116-0.328-2.014,0.154-2.826,0.631l-1.671,2.175c0.851,0.634,1.618,1.204,2.691,1.271
			C134.649,76.694,134.929,76.495,135.395,76.305z"/>
	</g>
	<g>
		<path fill="#FFFFFF" d="M283.223,104.865c-0.318-0.27-0.812-0.751-1.094-1.067l-0.986-1.105l-0.984-1.007
			c-0.286-0.261-0.812-0.703-1.157-0.986c-0.353-0.268-0.905-0.466-1.255-0.514c-0.354-0.014-0.936-0.019-1.293-0.012
			c-0.342-0.042-0.545,0.119-0.457,0.415c0.09,0.288,0.291,0.922,0.479,1.321c0.176,0.419,0.457,1.145,0.617,1.605
			c0.154,0.463,0.461,1.086,0.676,1.387c0.211,0.297,0.655,0.727,0.987,0.922c0.806,0.411,1.917,0.305,2.897,0.129
			C282.09,105.83,283.971,105.49,283.223,104.865z"/>
		<path fill="#FFFFFF" d="M275.968,103.893c-0.12-0.489-0.34-1.255-0.481-1.699c-0.151-0.445-0.408-1.125-0.565-1.506
			c-0.192-0.479-0.267-0.682-0.583-0.92c-0.413-0.276-0.745-0.573-1.225-0.686c-0.178-0.097-0.471-0.221-0.76-0.065
			c-0.492,0.25-0.416,0.902-0.472,1.325c-0.073,0.439-0.19,1.188-0.266,1.656c-0.07,0.445-0.065,1.069-0.003,1.403
			c0.059,0.329,0.212,0.881,0.342,1.225c0.225,0.599,1.154,1.156,1.768,1.391c0.524,0.37,3.75,0.523,2.976-0.561
			C276.404,105.06,276.08,104.385,275.968,103.893z"/>
		<path fill="#FFFFFF" d="M270.619,95.833c-0.242-0.6-0.684-0.432-1.402,0.098c-0.398,0.286-1.07,0.812-1.486,1.16
			c-0.444,0.345-0.94,0.91-1.142,1.271c-0.38,0.644-0.62,1.265-0.459,2.077c0.256,0.958,0.829,2.201,1.711,2.745
			c0.55,0.25,1.255,0.686,1.841,0.52c0.701-0.214,0.385-1.253,0.504-1.817c0.075-0.462,0.231-1.298,0.366-1.838
			c0.069-0.521,0.341-1.488,0.511-1.857c0.203-0.601,0.367-0.904,0.146-1.326C271.061,96.675,270.719,96.282,270.619,95.833z"/>
		<path fill="#FFFFFF" d="M266.842,96.44c0.418-0.344,1.045-0.854,1.391-1.136c1.724-1.321,1.58-2.436,1.685-3.825
			c0.062-0.4-0.388-0.748-1-0.703c-0.446,0.03-1.207,0.147-1.685,0.263c-0.82,0.227-1.82,0.369-2.441,1.06
			c-0.805,0.814-1.146,1.911-1.182,3.095c-0.16,0.626,0.877,4.104,1.84,2.67C265.79,97.409,266.42,96.769,266.842,96.44z"/>
		<path fill="#FFFFFF" d="M270.895,87.844c-0.291-0.288-0.817-0.729-1.17-0.975c-0.701-0.483-1.272-0.991-2.271-0.903l-0.258,0.073
			c-1.42,0.451-2.473,2.061-2.697,3.508c-0.061,0.232-0.165,0.584-0.086,0.805c0.191,0.367,0.354,0.172,0.686,0.046
			c0.523-0.214,1.387-0.397,1.914-0.418c0.531-0.035,1.307-0.113,1.717-0.177c0.672-0.157,1.685,0.021,2.153-0.085
			c0.353-0.167,0.74-0.302,0.767-0.654C271.684,88.658,271.264,88.177,270.895,87.844z"/>
		<path fill="#FFFFFF" d="M289.326,78.863c0.154,0.183,0.68,1.241,1.146,0.973c0.108-0.06,0.432-0.578,0.524-0.7
			c0.34-0.414,0.858-1.05,1.231-1.44c0.57-0.604,1.231-1.266,1.396-2.107c0.083-0.431,0.081-0.893,0.007-1.358
			c-0.193-1.166-1.004-2.222-1.832-2.912c-0.402-0.398-1.871-1.271-2.085-0.309c-0.139,0.571-0.462,1.472-0.714,2.001
			c-0.23,0.521-0.548,1.318-0.637,1.716C287.996,76.423,288.686,77.729,289.326,78.863z"/>
		<path fill="#FFFFFF" d="M291.881,81.281c-0.547,0.819-0.934,1.658-0.77,2.407l0.393,1.118c0.057,0.235,0.033,0.762,0.42,0.881
			c0.376,0.119,0.84-0.24,1.166-0.377l2.038-0.707c0.642-0.221,1.185-0.812,1.597-1.351l0.383-1.011
			c0.361-1.661-0.301-3.533-1.28-4.851c-0.199-0.298-0.406-0.745-0.759-0.465c-0.641,0.519-1.111,1.631-1.603,2.246
			C292.908,79.897,292.318,80.608,291.881,81.281z"/>
		<path fill="#FFFFFF" d="M292.893,97.551l-1.99-0.734c-1.268-0.521-2.881-0.887-3.928-0.404c-0.584,0.284-1.627,0.876-1.522,1.613
			c0.015,0.198,0.843,0.789,1.063,0.891c0.744,0.485,1.318,1.306,2.096,1.716c0.6,0.315,1.418,0.471,2.148,0.327
			c0.59-0.115,1.26-0.763,1.76-1.061c0.494-0.374,0.932-0.877,1.2-1.458C294.01,97.807,293.357,97.69,292.893,97.551z"/>
		<path fill="#FFFFFF" d="M287.993,101.766c-0.519-0.284-0.88-0.646-1.292-1.081c-0.449-0.477-0.973-0.917-1.485-1.247
			c-1.063-0.639-2.225-0.613-3.009-0.113c-0.223,0.144-0.779,0.4-0.91,0.71c-0.146,0.322,0.23,0.696,0.436,0.982l0.811,1.208
			c0.456,0.725,0.895,1.685,1.689,2.041c1.129,0.499,3.121-0.29,3.983-1.219l0.269-0.236c0.162-0.155,0.316-0.337,0.287-0.483
			C288.715,102.07,288.193,101.877,287.993,101.766z"/>
		<path fill="#FFFFFF" d="M296.354,91.696c-0.537,0.158-1.404,0.246-1.933,0.211c-0.53-0.03-1.348-0.023-1.834-0.001
			c-0.994,0.028-1.646,0.057-2.271,0.518c-0.558,0.383-0.764,0.943-1.15,1.451c-0.098,0.157-0.343,0.514-0.196,0.76
			c0.146,0.257,0.974,0.401,1.271,0.534c0.473,0.227,1.231,0.627,1.681,0.898c1.045,0.639,2.331,0.605,3.154-0.142
			c0.773-0.635,1.363-1.619,1.773-2.564C297.018,92.812,297.398,91.372,296.354,91.696z"/>
		<path fill="#FFFFFF" d="M297.732,84.931c-0.332-0.404-0.666,0.127-0.93,0.304l-1.097,0.613c-1.101,0.643-2.644,1.142-3.619,1.818
			c-0.681,0.436-0.642,1.072-0.885,1.63c-0.073,0.226-0.577,1.215-0.007,1.366c0.174,0.047,0.41-0.065,0.557-0.104
			c0.764-0.205,1.629-0.233,2.506-0.248c0.786-0.019,1.662-0.021,2.352-0.485c0.505-0.393,0.828-0.924,1.053-1.516
			c0.219-0.6,0.334-1.25,0.354-1.893C297.98,86.028,297.996,85.254,297.732,84.931z"/>
		<path fill="#FFFFFF" d="M285.689,74.458c0.254,0.18,0.715,0.526,1.125,0.411c0.283-0.079,0.291-0.197,0.365-0.457l0.443-1.312
			l0.773-1.696c0.232-0.521,0.168-0.944,0.103-1.495c-0.085-1.049-0.985-1.948-1.726-2.621c-0.541-0.493-1.187-0.895-1.918-1.035
			l-0.562-0.09c-0.418-0.016-0.681,0.163-0.724,0.812c-0.041,0.636-0.146,1.515-0.219,1.958c-0.215,1.411,0.019,2.522,0.588,3.582
			C284.396,73.252,285.046,73.95,285.689,74.458z"/>
		<path fill="#FFFFFF" d="M276.443,65.659c0.298,0.586,0.574,1.104,0.742,1.732c0.549,1.871,1.656,3.063,3.105,3.631
			c0.229,0.128,1.456,0.837,1.449-0.021c-0.006-0.335,0.027-0.951,0.072-1.369c0.1-0.903,0.312-1.696,0.164-2.625
			c-0.125-0.782-0.509-1.271-0.994-1.684c-0.586-0.472-1.334-0.799-2.144-1.04c-0.37-0.085-3.116-0.675-2.944,0.289
			C275.953,64.914,276.296,65.365,276.443,65.659z"/>
		<path fill="#FFFFFF" d="M270.805,64.528c0.393,0.457,0.577,1.01,0.78,1.582c0.166,0.441,0.46,1.137,0.649,1.461
			c0.418,0.712,0.836,1.299,1.436,1.592c0.635,0.271,1.303,0.354,1.965,0.49c0.273,0.041,0.385-0.214,0.23-0.571
			c-0.151-0.356-0.368-1.251-0.497-1.991c-0.118-0.761-0.484-1.814-0.817-2.365c-0.318-0.554-0.863-0.866-1.467-1.041l-1.432-0.204
			c-0.348,0.034-1.452,0.106-1.127,0.767L270.805,64.528z"/>
		<path fill="#FFFFFF" d="M266.55,66.539c0.2,0.393,0.537,0.984,0.747,1.316c0.535,0.838,1.1,1.486,1.908,1.673
			c0.363,0.085,0.759,0.278,1.122,0.203c0.271-0.057,0.776-0.071,0.668-0.615l-0.216-0.377c-0.823-1.252-0.612-3.441-2.062-4.281
			l-0.677-0.229c-0.647-0.118-1.424-0.044-1.925,0.142c-0.328,0.122-0.614,0.349-0.352,0.773
			C265.998,65.518,266.352,66.145,266.55,66.539z"/>
		<path fill="#FFFFFF" d="M266.342,70.219c0.16-0.02,0.5-0.032,0.588-0.223c0.137-0.295-0.281-0.842-0.43-1.098
			c-0.664-1.17-1.021-2.351-2.007-3.162c-0.902-0.729-2.06-0.504-3.083-0.354c-0.248,0.036-0.73,0.048-0.852,0.329l-0.029,0.131
			c-0.012,0.328,0.451,0.771,0.639,0.994l1.799,2.424C263.852,70.58,265.23,70.438,266.342,70.219z"/>
		<path fill="#FFFFFF" d="M260.896,69.211c-0.345-0.555-0.609-1.188-1.032-1.69c-0.482-0.572-1.065-0.757-1.706-0.941
			c-0.57-0.158-1.073,0.085-1.643,0.144c-0.305,0.03-0.285,0.504,0.037,1.051c0.32,0.547,0.766,1.311,0.989,1.699
			c0.616,1.049,2.034,2.192,3.054,2.073c0.448-0.077,0.908,0.031,1.315-0.184c0.427-0.215,0.134-0.537-0.111-0.874L260.896,69.211z"
			/>
		<path fill="#FFFFFF" d="M271.932,83.159c-0.791-0.202-1.709-0.052-2.385,0.422c-0.076,0.052-0.174,0.117-0.275,0.191
			c-0.386,0.272-0.832,0.664-0.355,0.97c0.488,0.313,1.002,0.454,1.475,0.81c0.481,0.359,1.032,0.75,1.639,0.847
			c1.099,0.171,1.197-0.608,1.223-1.481C273.277,83.95,272.88,83.402,271.932,83.159z"/>
		<path fill="#FFFFFF" d="M257.35,71.042l-1.383-1.679c-0.305-0.377-0.471-0.678-0.898-0.896c-0.844-0.427-1.579-0.19-2.34,0.086
			c-0.474,0.158-0.623,0.554-0.336,0.875l1.017,1.183l0.379,0.475c0.567,0.729,1.173,1.45,1.979,1.66
			c0.76,0.188,1.748,0.234,2.34-0.245l0.181-0.283C258.364,71.823,257.557,71.282,257.35,71.042z"/>
		<path fill="#FFFFFF" d="M231.907,82.569c-0.374-0.321-0.933-0.901-1.241-1.285c-0.311-0.385-0.783-0.887-1.055-1.114
			c-0.271-0.228-0.75-0.513-1.063-0.635c-0.78-0.3-1.635-0.071-2.413,0.179c-0.346,0.119-1.973,0.271-1.342,0.962
			c0.27,0.297,0.709,0.808,0.975,1.138c0.269,0.33,0.709,0.844,0.979,1.142c0.271,0.285,0.756,0.689,1.084,0.897
			c0.327,0.21,0.978,0.543,1.446,0.739c0.469,0.199,1.238,0.241,1.705,0.098c0.466-0.145,1.229-0.388,1.699-0.539
			c0.469-0.151,0.639-0.438,0.379-0.635C232.799,83.318,232.279,82.892,231.907,82.569z"/>
		<path fill="#FFFFFF" d="M237.418,80.53c-0.354-0.291-0.896-0.807-1.206-1.147c-0.312-0.339-0.788-0.775-1.062-0.972l-1.027-0.672
			c-0.514-0.309-1.331-0.117-1.884-0.086c-0.455,0.09-2.839,0.988-1.913,1.697c0.376,0.284,0.938,0.833,1.249,1.219
			c0.306,0.385,0.866,0.963,1.233,1.262c0.364,0.293,1.004,0.702,1.426,0.908c0.514,0.253,0.754,0.411,1.295,0.265
			c0.68-0.186,1.345-0.273,1.996-0.622c0.279-0.147,0.717-0.406,0.815-0.764C238.505,81.028,237.746,80.802,237.418,80.53z"/>
		<path fill="#FFFFFF" d="M244.066,77.963c-0.43-0.303-1.107-0.834-1.51-1.182c-0.402-0.346-1.021-0.809-1.377-1.026
			c-0.634-0.39-1.162-0.67-1.812-0.613c-0.836,0.069-1.678-0.011-2.359,0.532c-0.374,0.308-0.947,0.561-1.074,1.117
			c-0.154,0.681,0.752,1.049,1.188,1.447c0.34,0.313,1.02,0.891,1.486,1.25c0.473,0.363,1.301,0.802,1.842,0.978
			c0.802,0.26,1.459,0.354,2.169-0.068c0.397-0.236,1.183-0.704,1.741-1.037C245.229,78.841,244.839,78.51,244.066,77.963z"/>
		<path fill="#FFFFFF" d="M249.545,74.721c-0.374-0.275-0.99-0.724-1.374-0.994c-0.716-0.513-1.413-1.259-2.221-1.438
			c-0.966-0.216-1.935-0.213-2.822,0.112c-0.464,0.178-2.951,1.389-1.646,2.229c0.438,0.283,1.143,0.791,1.563,1.128
			c0.422,0.339,1.117,0.813,1.542,1.061c1.926,1.111,3.5,0.225,5.021-0.813C250.105,75.667,250.057,75.099,249.545,74.721z"/>
		<path fill="#FFFFFF" d="M252.809,71.577c-0.545-0.65-0.931-1.289-1.695-1.582l-0.234-0.078c-1.229-0.355-2.468,0.144-3.47,0.757
			c-0.158,0.102-0.411,0.238-0.487,0.438c-0.129,0.333,0.107,0.394,0.375,0.557c0.434,0.267,1.102,0.773,1.489,1.131
			c0.39,0.36,1.036,0.84,1.437,1.064c0.685,0.383,1.487,0.896,2.213,0.983c0.561,0.067,1.447-0.274,1.803-0.716
			c0.383-0.475-0.119-0.966-0.443-1.361L252.809,71.577z"/>
		<path fill="#FFFFFF" d="M195.322,81.125l-0.498-0.998c-0.577-0.661-1.148-1.359-1.902-1.547c-0.369-0.11-1.546-0.517-1.77,0.372
			c-0.123,0.527-0.346,1.426-0.498,1.992c-0.158,0.562-0.246,1.37-0.2,1.789c0.146,1.845,1.776,3.069,3.356,3.589
			c0.272,0.103,1.685,0.771,1.82,0.14c0.026-0.117-0.179-0.693-0.195-0.863c-0.082-0.539-0.108-1.424-0.068-1.966
			C195.426,82.788,195.551,81.855,195.322,81.125z"/>
		<path fill="#FFFFFF" d="M202.434,84.625c-0.067-0.672-0.436-1.32-0.73-1.831l-0.624-0.701c-1.062-0.78-2.3-1.24-3.552-1.223
			c-0.278,0.01-0.609-0.114-0.688,0.315c-0.17,0.831,0.22,1.809,0.366,2.572c0.166,0.867,0.391,1.776,0.768,2.565
			c0.448,0.935,1.245,1.737,2.24,1.876c0.512,0.095,1.028-0.004,1.54-0.001c0.312,0.002,0.985,0.158,1.197-0.192
			c0.204-0.339-0.15-0.883-0.229-1.231L202.434,84.625z"/>
		<path fill="#FFFFFF" d="M219.098,83.128c-0.357-0.575-0.938-1.167-1.541-1.465c-0.486-0.243-1.258-0.104-1.742-0.155
			c-0.521-0.061-1.053-0.006-1.531,0.177c-0.523,0.213-0.223,0.771-0.01,1.205l0.865,1.941c0.534,1.265,1.659,2.654,3.004,2.726
			c0.781,0.046,2.155,0.149,2.64-0.659c0.136-0.223-0.526-1.012-0.654-1.239C219.677,84.87,219.566,83.879,219.098,83.128z"/>
		<path fill="#FFFFFF" d="M225.279,83.362c-0.398-0.766-0.737-1.712-1.416-2.204c-0.971-0.683-2.662-0.402-3.6-0.006l-0.277,0.111
			c-0.172,0.074-0.346,0.18-0.371,0.326c-0.042,0.262,0.302,0.647,0.43,0.828c0.33,0.465,0.521,0.938,0.732,1.495
			c0.23,0.61,0.56,1.21,0.971,1.69c0.872,1.026,2.352,1.127,3.458,0.726c0.317-0.111,1.038-0.422,1.231-0.726
			c0.209-0.326-0.207-0.703-0.406-0.997L225.279,83.362z"/>
		<path fill="#FFFFFF" d="M213.914,84.613c-0.24-1.248-1.012-2.019-1.887-2.37c-0.791-0.293-1.65-0.319-2.441-0.281
			c-0.428,0.023-1.562,0.109-1.062,1.002c0.262,0.459,0.606,1.251,0.768,1.763c0.159,0.509,0.484,1.284,0.732,1.725
			c0.478,0.854,0.858,1.407,1.746,1.692c0.756,0.211,1.547,0.157,2.306,0.002c0.228-0.048,0.758-0.132,0.856-0.412
			c0.098-0.284-0.437-0.974-0.537-1.28C214.229,85.955,214.014,85.127,213.914,84.613z"/>
		<path fill="#FFFFFF" d="M207.9,85.392c-0.213-0.746-0.418-1.56-0.898-2.128c-0.395-0.463-0.827-0.756-1.287-0.937
			c-0.462-0.183-0.939-0.248-1.421-0.251c-0.303,0.018-0.854-0.129-1.126,0.061c-0.35,0.25-0.016,0.679,0.093,0.974l0.371,1.204
			c0.444,1.213,0.884,2.679,1.788,3.614c0.59,0.607,1.445,0.694,2.219,0.702c0.293-0.012,1.745,0.124,1.668-0.46
			c-0.023-0.18-0.252-0.363-0.354-0.488C208.424,87.032,208.141,86.222,207.9,85.392z"/>
		<path fill="#FFFFFF" d="M187.428,82.677c0.299,0.297,0.961,0.631,1.391,0.473c0.293-0.106,0.261-0.238,0.274-0.515l0.207-1.367
			l0.701-1.761c0.239-0.522,0.229-0.914,0.261-1.396c0.08-0.896-0.339-1.646-0.652-2.184c-0.131-0.438-0.338-0.813-0.715-1.094
			l-0.326-0.199c-0.28-0.116-0.596-0.104-1.041,0.306c-0.437,0.401-1.035,1.02-1.34,1.352c-0.961,1.019-1.318,2.373-0.838,3.744
			C185.762,80.983,186.573,82.012,187.428,82.677z"/>
		<path fill="#FFFFFF" d="M187.245,72.872c0.187-0.584,0.127-1.16,0.057-1.787c0.001-0.29-0.077-2.424-0.936-2.212
			c-0.341,0.08-0.718,0.434-0.96,0.615l-1.508,1.08c-1.752,1.083-2.32,2.939-1.635,5.204c0.025,0.405,1.014,2.092,1.395,1.28
			c0.16-0.312,0.525-0.809,0.81-1.099c0.632-0.63,1.24-1.039,1.884-1.691C186.874,73.721,187.126,73.313,187.245,72.872z"/>
		<path fill="#FFFFFF" d="M181.939,69.586c0.299-0.268,1.134-0.681,1.857-0.9c0.715-0.229,1.755-0.646,2.312-0.927
			c0.562-0.273,0.815-0.711,1.06-1.136l0.308-1.032c0.008-0.299,0.267-1.058-0.447-1.021l-0.365,0.119
			c-0.562,0.173-1.122,0.226-1.739,0.284c-0.489,0.051-1.177,0.226-1.526,0.389c-0.732,0.342-1.45,0.813-1.73,1.562
			c-0.309,0.79-0.393,1.671-0.339,2.519C181.355,69.793,181.63,69.853,181.939,69.586z"/>
		<path fill="#FFFFFF" d="M182.202,63.602l0.461-0.144c1.55-0.492,3.528,0.443,4.758-0.229l0.474-0.252
			c0.377-0.197,0.541-0.709,0.621-0.9c0.045-0.118,0.021-0.362-0.35-0.639c-0.331-0.244-0.948-0.595-1.357-0.776
			c-0.427-0.215-1.033-0.354-1.418-0.399c-0.938-0.12-1.964,0.113-2.68,1.026c-0.258,0.391-0.641,0.8-0.758,1.288
			C181.868,62.937,181.629,63.584,182.202,63.602z"/>
		<path fill="#FFFFFF" d="M185.479,58.719c1.336,0.47,2.181,1.357,3.135,1.943c0.943,0.676,1.688,0.242,2.213,0.414
			c0.136,0.01,0.361,0.071,0.47-0.199l0.036-0.124c0.075-0.322-0.111-0.842-0.219-1.083c-0.325-0.852-0.819-1.764-1.43-2.615
			c-1.041-1.243-2.877-1.106-4.574,0.268c-0.234,0.181-0.721,0.605-0.736,0.873C184.352,58.599,185.189,58.61,185.479,58.719z"/>
		<path fill="#FFFFFF" d="M192.1,57.51l0.115,1.942c0.074,0.653,0.225,1.147,0.299,1.667c0.064,0.392,0.332,0.469,0.477,0.855
			c0.07,0.168,0.455-0.096,0.826-0.599c0.371-0.506,0.848-1.25,1.072-1.641c0.733-1.047,0.627-3.101-0.908-4.029
			c-0.664-0.276-1.369-0.594-2.154-0.602c-0.803,0.028-0.449,0.457-0.268,0.844C191.799,56.458,192.016,56.995,192.1,57.51z"/>
		<path fill="#FFFFFF" d="M195.034,64.176c0.151,0.376,0.543,0.464,0.858,0.187l1.131-1.04l0.442-0.413
			c0.667-0.628,1.356-1.342,1.362-2.291c-0.114-0.869-0.43-2.148-1.426-2.697l-0.424-0.114c-0.437,0.067-0.398,1.168-0.535,1.443
			c-0.25,0.646-0.653,1.315-1.055,1.917c-0.275,0.4-0.514,0.649-0.64,1.072C194.516,63.026,194.787,63.529,195.034,64.176z"/>
		<path fill="#FFFFFF" d="M199.537,89.282c-0.102-0.045-0.202-0.085-0.307-0.118c-0.597-0.191-1.238-0.197-1.851-0.327
			c-0.616-0.13-1.188-0.363-1.793-0.537c-0.831-0.237-1.522,0.229-2.026,0.84c-0.254,0.304-1.188,1.259-0.359,1.446
			c0.377,0.084,1.021,0.233,1.431,0.333c0.407,0.101,1.068,0.231,1.468,0.292c0.399,0.063,1.059,0.08,1.467,0.036
			c0.404-0.039,1.166-0.189,1.695-0.343C200.245,90.621,200.496,89.726,199.537,89.282z"/>
		<path fill="#FFFFFF" d="M200.977,75.083c-0.467,0.255-1.117,0.66-1.447,0.9c-0.605,0.434-1.075,0.795-1.283,1.379
			c-0.194,0.527-0.834,1.429-0.578,1.988c0.243,0.53,1.234,0.753,1.74,0.854c0.912,0.187,1.513,0.15,2.365-0.244
			c0.574-0.26,1.352-0.854,1.744-1.303c0.604-0.685,0.957-1.312,0.842-2.207c-0.045-0.509-0.219-1.477-0.338-2.164
			c-0.189-1.072-0.633-0.789-1.412-0.229C202.177,74.371,201.441,74.831,200.977,75.083z"/>
		<path fill="#FFFFFF" d="M199.654,68.764c-0.655,0.602-1.51,1.098-1.911,1.809c-0.474,0.848-0.712,1.701-0.708,2.576
			c0.049,0.442,0.301,3.022,1.546,2.163c0.421-0.296,1.144-0.771,1.606-1.053c0.473-0.277,1.135-0.778,1.502-1.114
			c1.656-1.519,1.254-3.503,0.484-5.352c-0.238-0.605-0.808-0.669-1.273-0.214L199.654,68.764z"/>
		<path fill="#FFFFFF" d="M196.371,65.525l-0.094,0.213c-0.45,1.105-0.144,2.193,0.244,3.194l0.313,0.518
			c0.296,0.176,0.408-0.028,0.625-0.247c0.354-0.353,0.989-0.903,1.414-1.224c0.435-0.316,0.997-0.879,1.261-1.256
			c0.457-0.64,1.039-1.43,1.176-2.236c0.065-0.619-0.324-1.695-0.783-2.126c-0.537-0.462-0.981,0.127-1.348,0.474
			c-0.316,0.293-0.852,0.766-1.179,1.045C197.35,64.434,196.707,64.824,196.371,65.525z"/>
		<path fill="#FFFFFF" d="M167.943,103.01c-0.157-0.825-0.281-1.754-0.721-2.389l-0.8-0.819c-0.75-0.591-1.618-0.982-2.45-0.938
			c-0.435,0.037-1.726-0.032-1.605,0.901c0.057,0.588,0.181,1.48,0.224,2.076c0.044,0.585,0.226,1.372,0.399,1.749
			c0.723,1.598,2.55,2.371,4.145,2.435c0.281,0.025,1.756,0.24,1.747-0.349c-0.003-0.127-0.333-0.664-0.39-0.807
			C168.289,104.375,168.044,103.54,167.943,103.01z"/>
		<path fill="#FFFFFF" d="M175.057,102.347c-0.218-0.637-0.711-1.168-1.098-1.585l-0.73-0.514c-1.19-0.677-2.59-0.647-3.83-0.436
			c-0.268,0.029-0.641-0.007-0.61,0.437c0.053,0.801,0.659,1.782,0.981,2.479c0.367,0.803,0.789,1.629,1.326,2.305
			c0.644,0.798,1.555,1.368,2.57,1.365c0.533-0.042,1.027-0.274,1.537-0.405c0.311-0.081,1.02-0.107,1.146-0.503
			c0.118-0.385-0.359-0.816-0.52-1.135L175.057,102.347z"/>
		<path fill="#FFFFFF" d="M191.969,97.25c-0.766-0.468-1.332-1.294-2.08-1.731c-0.59-0.355-1.375-0.643-2.031-0.674
			c-0.531-0.026-1.135,0.394-1.57,0.532c-0.471,0.148-0.902,0.383-1.223,0.772c-0.353,0.417,0.113,0.801,0.474,1.125l1.521,1.416
			c0.969,0.935,2.588,1.733,3.904,1.182c0.762-0.31,2.152-0.838,2.18-1.871C193.154,97.729,192.188,97.387,191.969,97.25z"/>
		<path fill="#FFFFFF" d="M196.537,92.996l-1.344-0.531c-0.769-0.379-1.596-0.942-2.387-0.96c-1.138-0.031-2.412,0.914-2.942,1.724
			l-0.166,0.226c-0.101,0.146-0.188,0.318-0.136,0.459c0.096,0.25,0.564,0.424,0.763,0.52l1.356,0.939
			c0.502,0.415,1.084,0.769,1.688,0.964c1.262,0.404,2.735-0.301,3.487-1.352c0.203-0.312,0.625-1.065,0.604-1.445
			C197.443,93.128,196.872,93.106,196.537,92.996z"/>
		<path fill="#FFFFFF" d="M187.016,100.508c-0.35-0.398-0.863-1.088-1.148-1.527c-0.697-1.066-1.694-1.531-2.605-1.591
			c-0.824-0.053-1.576,0.248-2.252,0.59c-0.376,0.146-1.4,0.463-0.664,1.203c0.381,0.376,0.957,1.044,1.271,1.484
			c0.311,0.441,0.881,1.106,1.245,1.411c0.72,0.626,1.254,0.994,2.199,0.919c0.812-0.065,1.576-0.396,2.269-0.813
			c0.205-0.126,0.702-0.391,0.688-0.689C188.001,101.194,187.229,100.762,187.016,100.508z"/>
		<path fill="#FFFFFF" d="M182.198,103.557c-0.729-0.48-1.245-1.181-1.72-1.912c-0.427-0.655-0.861-1.401-1.461-1.783
			c-0.494-0.314-0.972-0.459-1.435-0.484l-1.372,0.068c-0.277,0.04-0.82,0.034-1.029,0.296c-0.269,0.333,0.143,0.662,0.313,0.919
			l0.635,1.071c0.708,1.073,1.547,2.537,2.675,3.133c0.736,0.393,1.594,0.182,2.354-0.056c0.291-0.089,1.801-0.349,1.542-0.881
			C182.622,103.764,182.335,103.649,182.198,103.557z"/>
		<path fill="#FFFFFF" d="M161.439,102.567l0.026-1.892c0.028-0.569-0.139-0.924-0.309-1.384c-0.285-0.865-1.087-1.39-1.585-1.842
			c-0.356-0.339-0.762-0.596-1.26-0.694l-0.412-0.044c-0.321,0.012-0.599,0.165-0.795,0.74c-0.193,0.563-0.439,1.388-0.563,1.818
			c-0.401,1.37-0.104,2.61,0.836,3.723c0.728,0.692,1.812,1.292,2.813,1.562c0.379,0.11,1.074,0.312,1.416-0.016
			c0.234-0.2,0.164-0.312,0.088-0.577L161.439,102.567z"/>
		<path fill="#FFFFFF" d="M155.256,94.244c-0.053-0.231-0.703-1.789-1.523-1.391c-0.281,0.151-0.512,0.552-0.688,0.794l-1.051,1.505
			c-1.437,1.769-0.621,3.826,0.903,5.431c0.179,0.399,1.744,1.415,1.74,0.521c0.006-0.349,0.107-0.952,0.228-1.34l0.918-2.45
			c0.208-0.73,0.237-1.265,0.132-1.696C155.842,95.078,155.332,94.796,155.256,94.244z"/>
		<path fill="#FFFFFF" d="M154.139,90.724l0.068-0.979c-0.068-0.221,0-1.066-0.674-0.922l-0.346,0.195
			c-0.465,0.254-1.025,0.374-1.607,0.532c-0.463,0.123-1.098,0.413-1.406,0.642c-0.664,0.481-1.194,1.086-1.397,1.958
			c-0.286,0.922-0.105,1.869,0.38,2.746c0.164,0.369,0.445,0.336,0.635-0.042c0.188-0.384,0.819-1.051,1.405-1.446
			c0.525-0.399,1.501-1.062,2.039-1.446C153.752,91.579,154.02,91.151,154.139,90.724z"/>
		<path fill="#FFFFFF" d="M149.047,88.412c1.465-0.722,3.561-0.113,4.693-0.985l0.417-0.409c0.337-0.408,0.522-0.947,0.522-1.382
			c0.008-0.275-0.027-0.578-0.517-0.633c-0.431-0.044-1.14-0.106-1.552-0.133c-0.42-0.033-1.082-0.021-1.469,0.027
			c-0.959,0.124-1.879,0.454-2.368,1.389c-0.199,0.422-0.517,0.883-0.56,1.376c-0.03,0.354-0.183,1.054,0.402,0.938
			C148.771,88.626,148.913,88.474,149.047,88.412z"/>
		<path fill="#FFFFFF" d="M157.02,81.884l-0.053-0.117c-0.172-0.275-0.753-0.459-1.023-0.557l-2.852-0.917
			c-1.557-0.449-2.785,0.963-3.424,2.272c-0.104,0.185-0.317,0.582-0.211,0.788c0.175,0.323,0.863,0.166,1.174,0.18
			c1.346,0.024,2.568,0.446,3.782,0.302c1.038-0.156,1.702-0.762,2.212-1.378C156.755,82.312,157.1,82.162,157.02,81.884z"/>
		<path fill="#FFFFFF" d="M153.506,78.418l1.447,0.604l1.641,1.027c0.625,0.289,1.225,0.371,1.797,0.438
			c0.512,0.088,0.777-0.271,1.205-0.294c0.217-0.011,0.111-0.456-0.25-0.979c-0.363-0.521-0.908-1.229-1.197-1.578
			c-0.771-1.021-2.529-1.63-3.799-1.014c-0.514,0.28-1,0.569-1.354,1.061C152.637,78.204,153.105,78.273,153.506,78.418z"/>
		<path fill="#FFFFFF" d="M160.299,74.243c-0.929-0.332-2.252-0.208-3.023,0.458l-0.231,0.332c-0.073,0.412,0.946,0.803,1.17,1.028
			l1.472,1.584c0.289,0.375,0.444,0.668,0.793,0.898c0.701,0.576,1.184,0.493,1.765,0.422l-0.238-2.732
			C161.682,75.402,161.262,74.517,160.299,74.243z"/>
	</g>
</g>
<text transform="matrix(1 0 0 1 53.5718 43.5486)" fill="#FFFFFF" font-family="'Fontin-Regular'" font-size="56">The Inn</text>
</svg>
