<?xml version="1.0" encoding="utf-8"?>
<!-- Generator: Adobe Illustrator 16.0.0, SVG Export Plug-In . SVG Version: 6.00 Build 0)  -->
<!DOCTYPE svg PUBLIC "-//W3C//DTD SVG 1.1//EN" "http://www.w3.org/Graphics/SVG/1.1/DTD/svg11.dtd">
<svg version="1.1" id="Capa_1" xmlns="http://www.w3.org/2000/svg" xmlns:xlink="http://www.w3.org/1999/xlink" x="0px" y="0px"
	 width="98.566px" height="58.402px" viewBox="0 0 98.566 58.402" enable-background="new 0 0 98.566 58.402" xml:space="preserve">
<g>
	<g>
		<path fill="#FFFFFF" d="M60.401,0.916c2.751,0.389,5.445,1.08,8.105,1.897c4.647,1.432,9.032,3.419,13.156,5.998
			c0.287,0.178,0.67,0.291,1.008,0.291c4.846,0.021,9.688,0.013,14.526,0.018c0.39,0,0.778,0.041,1.167,0.062
			c0,0.095,0.014,0.135-0.002,0.156c-0.226,0.349-0.455,0.69-0.682,1.038c-1.645,2.521-3.049,5.155-3.876,8.069
			c-0.092,0.312-0.109,0.575,0.103,0.883c4.312,6.191,5.688,12.989,3.886,20.317c-1.58,6.427-5.264,11.438-10.86,14.985
			c-4.001,2.537-8.421,3.745-13.145,3.771c-1.982,0.013-3.958-0.255-5.896-0.757c-4.724-1.226-8.771-3.579-12.106-7.145
			c-0.438-0.469-0.854-0.957-1.323-1.485c-1.764,2.629-3.5,5.215-5.276,7.868c-1.771-2.646-3.483-5.207-5.191-7.758
			c-0.118,0.062-0.152,0.068-0.175,0.091c-0.039,0.032-0.072,0.071-0.104,0.108c-4.033,4.765-9.109,7.686-15.295,8.662
			c-3.438,0.546-6.847,0.35-10.188-0.571c-4.735-1.302-8.759-3.799-12.01-7.484c-3.179-3.604-5.153-7.788-5.896-12.546
			c-0.849-4.439,0.187-8.721,0.443-9.76c0.748-3.021,2.052-5.793,3.842-8.343c0.126-0.182,0.17-0.502,0.11-0.718
			c-0.73-2.677-1.988-5.111-3.461-7.443C0.887,10.529,0.439,9.98,0.025,9.411c0-0.064,0-0.133,0-0.198
			C0.108,9.224,0.19,9.239,0.271,9.239c4.956,0.002,9.911,0.005,14.867-0.006c0.216,0,0.456-0.089,0.64-0.207
			c3.482-2.233,7.192-4.004,11.09-5.382c2.812-0.992,5.681-1.767,8.608-2.333c2.834-0.548,5.683-0.935,8.562-1.124
			C51.059-0.35,56.669,0.393,60.401,0.916z M54.188,33.647c0,10.883,8.83,19.773,19.674,19.731
			c10.885-0.039,19.675-8.681,19.667-19.684c-0.008-11.339-9.206-19.862-20.089-19.643C62.696,14.277,54.286,22.937,54.188,33.647z
			 M24.677,13.979C14.091,13.887,4.861,22.722,5.046,33.976c0.172,10.494,8.822,19.393,19.853,19.297
			C35.682,53.18,44.35,44.375,44.37,33.711C44.386,22.755,35.612,13.979,24.677,13.979z M25.653,8.845
			c5.979,0.365,11.233,2.449,15.671,6.485c4.429,4.027,7.024,9.053,7.967,14.962c0.972-5.839,3.497-10.816,7.843-14.806
			c4.354-3.991,9.536-6.087,15.418-6.529c-6.979-3.104-14.34-4.421-21.914-4.567C42.026,4.221,33.651,5.49,25.653,8.845z"/>
		<path fill="#FFFFFF" d="M73.822,21.231c6.735-0.012,12.19,5.415,12.19,12.144c0,6.754-5.362,11.976-11.688,12.216
			c-7.065,0.271-12.718-5.357-12.716-12.187C61.614,26.498,67.307,21.117,73.822,21.231z M81.766,33.404
			c-0.003-4.391-3.554-7.958-7.912-7.958c-4.41,0-8,3.55-8.02,7.927c-0.016,4.357,3.594,7.983,7.961,7.996
			C78.173,41.385,81.768,37.786,81.766,33.404z"/>
		<path fill="#FFFFFF" d="M24.417,21.231c6.731-0.007,12.194,5.43,12.179,12.155c-0.021,6.81-5.388,11.916-11.603,12.199
			C17.9,45.91,12.177,40.256,12.19,33.391C12.204,26.436,17.936,21.115,24.417,21.231z M32.352,33.377
			c-0.015-4.417-3.585-7.938-8.044-7.931c-4.303,0.009-7.905,3.639-7.896,7.955c0.011,4.367,3.611,7.958,7.992,7.971
			C28.759,41.382,32.363,37.756,32.352,33.377z"/>
		<path fill="#FFFFFF" d="M73.828,29.363c2.232-0.002,4.062,1.829,4.041,4.049c-0.021,2.224-1.821,4.025-4.016,4.026
			c-2.262,0-4.077-1.786-4.072-3.999C69.785,31.143,71.55,29.365,73.828,29.363z"/>
		<path fill="#FFFFFF" d="M24.396,29.327c2.266-0.002,4.087,1.808,4.096,4.066c0.009,2.239-1.829,4.078-4.084,4.084
			c-2.309,0.005-4.09-1.779-4.088-4.101C20.32,31.099,22.097,29.33,24.396,29.327z"/>
	</g>
</g>
</svg>
